<?xml-stylesheet type="text/css" href="svg.css" ?>
<svg id="blue_dialogue" xmlns="http://www.w3.org/2000/svg" viewBox="0 0 391.62 214.24"><rect x="5" y="5" width="381.62" height="204.24" rx="28.96" fill="#13241a" stroke="#366056" stroke-miterlimit="10" stroke-width="10"/><g id="blue2"><path d="M1424.47,672.43V659.48h-2.55V654.3h-2.59v-2.83h2.8v2.59h2.59v5.18h2.34v-5.18h2.59v-2.59h2.84v2.83h-2.59v5.18h-2.59v12.95Z" transform="translate(-1376.27 -620.2)" fill="#e6c873"/><path d="M1437.7,672.43v-2.59h-2.59v-10.6h2.59v-2.59h5.43v2.59h2.59v10.6h-2.59v2.59Zm5.18-12.95H1438V669.6h4.93Z" transform="translate(-1376.27 -620.2)" fill="#e6c873"/><path d="M1450.76,672.43v-2.59h-2.59V656.65H1451v13h4.94v-13h2.83v15.78Z" transform="translate(-1376.27 -620.2)" fill="#e6c873"/><path d="M1475.75,672.43V659.48h-4.94v12.95H1468v-21h2.8v5.18H1476v2.59h2.59v13.19Z" transform="translate(-1376.27 -620.2)" fill="#e6c873"/><path d="M1491.42,672.43v-2.59H1489v2.59h-5.38v-2.59h-2.6v-5.42h2.6v-2.59h5.17v-2.35h-5.17v-2.83H1489v2.59h2.59V669.6h2.59v2.83Zm-2.59-7.77h-4.93v4.94h4.93Z" transform="translate(-1376.27 -620.2)" fill="#e6c873"/><path d="M1501.36,672.43v-5.18h-2.59v-5.18h-2.59v-5.42H1499v5.18h2.59V667H1504v-5.18h2.58v-5.18h2.84v5.42h-2.59v5.18h-2.59v5.18Z" transform="translate(-1376.27 -620.2)" fill="#e6c873"/><path d="M1514.42,672.43v-2.59h-2.59v-10.6h2.59v-2.59h5.39v2.59h2.59v5.42h-7.77v4.94h4.93V667h2.84v2.83h-2.59v2.59Zm5.14-12.95h-4.93v2.35h4.93Z" transform="translate(-1376.27 -620.2)" fill="#e6c873"/><path d="M1539.37,672.43V659.48h-4.93v12.95h-2.8V656.65h8v2.59h2.59v13.19Z" transform="translate(-1376.27 -620.2)" fill="#e6c873"/><path d="M1547.35,672.43v-2.59h-2.59v-10.6h2.59v-2.59h5.43v2.59h2.59v10.6h-2.59v2.59Zm5.18-12.95h-4.93V669.6h4.93Z" transform="translate(-1376.27 -620.2)" fill="#e6c873"/><path d="M1564.64,654.3v-2.83h2.84v2.83Zm0,18.13V656.65h2.84v15.78Z" transform="translate(-1376.27 -620.2)" fill="#e6c873"/><path d="M1572.8,672.43v-2.59h-2.59v-10.6h2.59v-2.59H1578v-5.18h2.83v21Zm5.18-12.95H1573V669.6H1578Z" transform="translate(-1376.27 -620.2)" fill="#e6c873"/><path d="M1586.2,672.43v-2.59h-2.59v-10.6h2.59v-2.59h5.39v2.59h2.59v5.42h-7.77v4.94h4.94V667h2.83v2.83h-2.59v2.59Zm5.15-12.95h-4.94v2.35h4.94Z" transform="translate(-1376.27 -620.2)" fill="#e6c873"/><path d="M1607.1,672.43v-2.59h-2.38v2.59h-5.39v-2.59h-2.59v-5.42h2.59v-2.59h5.18v-2.35h-5.18v-2.83h5.39v2.59h2.59V669.6h2.59v2.83Zm-2.59-7.77h-4.94v4.94h4.94Z" transform="translate(-1376.27 -620.2)" fill="#e6c873"/><path d="M1628.66,672.43v-5.18h-2.35v5.18h-2.83v-5.18h-2.59v-5.18h-2.59v-5.42h2.83v5.18h2.59V667h2.35v-5.18h2.83V667h2.35v-5.18h2.59v-5.18h2.83v5.42h-2.59v5.18h-2.59v5.18Z" transform="translate(-1376.27 -620.2)" fill="#e6c873"/><path d="M1646.79,672.43V659.48h-4.94v12.95h-2.8v-21h2.8v5.18H1647v2.59h2.59v13.19Z" transform="translate(-1376.27 -620.2)" fill="#e6c873"/><path d="M1662.46,672.43v-2.59h-2.38v2.59h-5.38v-2.59h-2.6v-5.42h2.6v-2.59h5.18v-2.35h-5.18v-2.83h5.38v2.59h2.59V669.6h2.59v2.83Zm-2.58-7.77h-4.94v4.94h4.94Z" transform="translate(-1376.27 -620.2)" fill="#e6c873"/><path d="M1672.4,672.43v-2.59h-2.59V659.48h-2.59v-2.83h2.59v-5.18h2.84v5.18h2.59v2.83h-2.59V669.6h2.59v2.83Z" transform="translate(-1376.27 -620.2)" fill="#e6c873"/><path d="M1684.2,672.43v-21h2.8v21Z" transform="translate(-1376.27 -620.2)" fill="#e6c873"/><path d="M1429.09,714.43v-5.18h-2.34v5.18h-2.84v-5.18h-2.59v-5.18h-2.59v-5.42h2.84v5.18h2.59V709h2.34v-5.18h2.84V709h2.34v-5.18h2.59v-5.18h2.84v5.42h-2.59v5.18h-2.59v5.18Z" transform="translate(-1376.27 -620.2)" fill="#e6c873"/><path d="M1442.08,714.43v-2.59h-2.59v-10.6h2.59v-2.59h5.39v2.59h2.59v5.42h-7.77v4.94h4.93V709h2.84v2.83h-2.59v2.59Zm5.14-12.95h-4.93v2.35h4.93Z" transform="translate(-1376.27 -620.2)" fill="#e6c873"/><path d="M1460.59,714.43V701.48h-4.93v12.95h-2.8V698.65h8v2.59h2.59v13.19Z" transform="translate(-1376.27 -620.2)" fill="#e6c873"/><path d="M1470.74,714.43v-2.59h-2.59V701.48h-2.59v-2.83h2.59v-5.18H1471v5.18h2.59v2.83H1471V711.6h2.59v2.83Z" transform="translate(-1376.27 -620.2)" fill="#e6c873"/><path d="M1487.12,714.43v-2.59h-2.59V701.48h-2.59v-2.83h2.59v-5.18h2.84v5.18H1490v2.83h-2.59V711.6H1490v2.83Z" transform="translate(-1376.27 -620.2)" fill="#e6c873"/><path d="M1500.21,714.43V701.48h-4.93v12.95h-2.81v-21h2.81v5.18h5.18v2.59H1503v13.19Z" transform="translate(-1376.27 -620.2)" fill="#e6c873"/><path d="M1505.77,714.43V698.65h2.81v2.59h2.34v-2.59h2.83v2.83h-2.58v2.59h-2.59v10.36Z" transform="translate(-1376.27 -620.2)" fill="#e6c873"/><path d="M1518.41,714.43v-2.59h-2.59v-10.6h2.59v-2.59h5.42v2.59h2.59v10.6h-2.59v2.59Zm5.18-12.95h-4.94V711.6h4.94Z" transform="translate(-1376.27 -620.2)" fill="#e6c873"/><path d="M1531.46,714.43v-2.59h-2.59V698.65h2.84v13h4.93v-13h2.84v15.78Z" transform="translate(-1376.27 -620.2)" fill="#e6c873"/><path d="M1544.69,722.2v-2.59h-2.59v-2.83h2.84v2.59h4.93v-4.94h-5.18v-2.59h-2.59v-10.6h2.59v-2.59h8v21h-2.59v2.59Zm5.18-20.72h-4.93V711.6h4.93Z" transform="translate(-1376.27 -620.2)" fill="#e6c873"/><path d="M1563.24,714.43V701.48h-4.93v12.95h-2.8v-21h2.8v5.18h5.18v2.59h2.59v13.19Z" transform="translate(-1376.27 -620.2)" fill="#e6c873"/><path d="M1585.36,714.43v-2.59H1583v2.59h-5.39v-2.59H1575v-5.42h2.59v-2.59h5.18v-2.35h-5.18v-2.83H1583v2.59h2.59V711.6h2.59v2.83Zm-2.59-7.77h-4.93v4.94h4.93Z" transform="translate(-1376.27 -620.2)" fill="#e6c873"/><path d="M1595.3,714.43v-2.59h-2.59V701.48h-2.59v-2.83h2.59v-5.18h2.84v5.18h2.59v2.83h-2.59V711.6h2.59v2.83Z" transform="translate(-1376.27 -620.2)" fill="#e6c873"/><path d="M1611.68,714.43v-2.59h-2.59V701.48h-2.59v-2.83h2.59v-5.18h2.84v5.18h2.59v2.83h-2.59V711.6h2.59v2.83Z" transform="translate(-1376.27 -620.2)" fill="#e6c873"/><path d="M1624.77,714.43V701.48h-4.93v12.95H1617v-21h2.8v5.18H1625v2.59h2.59v13.19Z" transform="translate(-1376.27 -620.2)" fill="#e6c873"/><path d="M1640.45,714.43v-2.59h-2.38v2.59h-5.39v-2.59h-2.59v-5.42h2.59v-2.59h5.18v-2.35h-5.18v-2.83h5.39v2.59h2.59V711.6h2.59v2.83Zm-2.59-7.77h-4.93v4.94h4.93Z" transform="translate(-1376.27 -620.2)" fill="#e6c873"/><path d="M1650.39,714.43v-2.59h-2.59V701.48h-2.59v-2.83h2.59v-5.18h2.84v5.18h2.59v2.83h-2.59V711.6h2.59v2.83Z" transform="translate(-1376.27 -620.2)" fill="#e6c873"/><path d="M1669.92,714.43V701.48H1665v12.95h-2.8V698.65h8v2.59h2.59v13.19Z" transform="translate(-1376.27 -620.2)" fill="#e6c873"/><path d="M1675.7,696.3v-2.83h2.83v2.83Zm0,18.13V698.65h2.83v15.78Z" transform="translate(-1376.27 -620.2)" fill="#e6c873"/><path d="M1683.85,722.2v-2.59h-2.59v-2.83h2.83v2.59H1689v-4.94h-5.18v-2.59h-2.59v-10.6h2.59v-2.59h8v21h-2.59v2.59Zm5.18-20.72h-4.94V711.6H1689Z" transform="translate(-1376.27 -620.2)" fill="#e6c873"/><path d="M1702.4,714.43V701.48h-4.94v12.95h-2.8v-21h2.8v5.18h5.18v2.59h2.59v13.19Z" transform="translate(-1376.27 -620.2)" fill="#e6c873"/><path d="M1712.55,714.43v-2.59H1710V701.48h-2.59v-2.83H1710v-5.18h2.83v5.18h2.59v2.83h-2.59V711.6h2.59v2.83Z" transform="translate(-1376.27 -620.2)" fill="#e6c873"/><path d="M1717.9,714.43V711.6h2.8v2.83Z" transform="translate(-1376.27 -620.2)" fill="#e6c873"/><path d="M1429.65,756.43v-5.18h-2.59v-5.18h-4.93v10.36h-2.8v-21h10.57v2.59h2.59v5.42h-2.59V751h2.59v5.42Zm0-18.13h-7.52v4.94h7.52Z" transform="translate(-1376.27 -620.2)" fill="#e6c873"/><path d="M1437.88,756.43v-2.59h-2.59v-10.6h2.59v-2.59h5.39v2.59h2.59v5.42h-7.77v4.94H1443V751h2.84v2.83h-2.59v2.59Zm5.14-12.95h-4.93v2.35H1443Z" transform="translate(-1376.27 -620.2)" fill="#e6c873"/><path d="M1453.24,756.43v-5.18h-2.59v-5.18h-2.59v-5.42h2.84v5.18h2.59V751h2.34v-5.18h2.59v-5.18h2.84v5.42h-2.59v5.18h-2.59v5.18Z" transform="translate(-1376.27 -620.2)" fill="#e6c873"/><path d="M1466.3,756.43v-2.59h-2.59v-10.6h2.59v-2.59h5.39v2.59h2.59v5.42h-7.77v4.94h4.93V751h2.84v2.83h-2.59v2.59Zm5.14-12.95h-4.93v2.35h4.93Z" transform="translate(-1376.27 -620.2)" fill="#e6c873"/><path d="M1484.81,756.43V743.48h-4.93v12.95h-2.8V740.65h8v2.59h2.59v13.19Z" transform="translate(-1376.27 -620.2)" fill="#e6c873"/><path d="M1492.79,764.2v-2.59h-2.59v-2.83H1493v2.59H1498v-4.94h-5.18v-2.59h-2.59v-10.6h2.59v-2.59h8v21h-2.59v2.59Zm5.18-20.72H1493V753.6H1498Z" transform="translate(-1376.27 -620.2)" fill="#e6c873"/><path d="M1506.2,756.43v-2.59h-2.6v-10.6h2.6v-2.59h5.38v2.59h2.59v5.42h-7.76v4.94h4.93V751h2.83v2.83h-2.59v2.59Zm5.14-12.95h-4.93v2.35h4.93Z" transform="translate(-1376.27 -620.2)" fill="#e6c873"/><path d="M1523.62,738.3v-2.83h2.84v2.83Zm0,18.13V740.65h2.84v15.78Z" transform="translate(-1376.27 -620.2)" fill="#e6c873"/><path d="M1529.26,756.43V753.6H1537v-4.94h-5.18v-2.59h-2.59v-2.83h2.59v-2.59h5.42v2.83h-5.18v2.35h5.18v2.59h2.59v5.42h-2.59v2.59Z" transform="translate(-1376.27 -620.2)" fill="#e6c873"/><path d="M1553.41,756.43v-2.59h-2.59V743.48h-2.59v-2.83h2.59v-5.18h2.83v5.18h2.59v2.83h-2.59V753.6h2.59v2.83Z" transform="translate(-1376.27 -620.2)" fill="#e6c873"/><path d="M1566.5,756.43V743.48h-4.94v12.95h-2.8v-21h2.8v5.18h5.18v2.59h2.59v13.19Z" transform="translate(-1376.27 -620.2)" fill="#e6c873"/><path d="M1574.65,756.43v-2.59h-2.59v-10.6h2.59v-2.59H1580v2.59h2.59v5.42h-7.77v4.94h4.94V751h2.83v2.83H1580v2.59Zm5.15-12.95h-4.94v2.35h4.94Z" transform="translate(-1376.27 -620.2)" fill="#e6c873"/><path d="M1594.29,756.43v-2.59h-2.59v-10.6h2.59v-2.59h5.42v2.59h2.59v10.6h-2.59v2.59Zm5.18-12.95h-4.94V753.6h4.94Z" transform="translate(-1376.27 -620.2)" fill="#e6c873"/><path d="M1612.66,756.43V743.48h-4.93v12.95h-2.8V740.65h8v2.59h2.59v13.19Z" transform="translate(-1376.27 -620.2)" fill="#e6c873"/><path d="M1618.23,756.43v-21h2.8v21Z" transform="translate(-1376.27 -620.2)" fill="#e6c873"/><path d="M1626.24,764.2v-2.59h-2.59v-2.83h2.84v2.59h4.93v-4.94h-5.18v-2.59h-2.59V740.65h2.84v13h4.93v-13h2.84v21h-2.59v2.59Z" transform="translate(-1376.27 -620.2)" fill="#e6c873"/><path d="M1648.08,756.43v-2.59h-2.59V743.48h-2.59v-2.83h2.59v-5.18h2.84v5.18h2.59v2.83h-2.59V753.6h2.59v2.83Z" transform="translate(-1376.27 -620.2)" fill="#e6c873"/><path d="M1661.17,756.43V743.48h-4.93v12.95h-2.81v-21h2.81v5.18h5.18v2.59H1664v13.19Z" transform="translate(-1376.27 -620.2)" fill="#e6c873"/><path d="M1666.94,738.3v-2.83h2.84v2.83Zm0,18.13V740.65h2.84v15.78Z" transform="translate(-1376.27 -620.2)" fill="#e6c873"/><path d="M1680.42,756.43V743.48h-4.94v12.95h-2.8V740.65h8v2.59h2.59v13.19Z" transform="translate(-1376.27 -620.2)" fill="#e6c873"/><path d="M1688.4,764.2v-2.59h-2.59v-2.83h2.83v2.59h4.94v-4.94h-5.18v-2.59h-2.59v-10.6h2.59v-2.59h8v21h-2.59v2.59Zm5.18-20.72h-4.94V753.6h4.94Z" transform="translate(-1376.27 -620.2)" fill="#e6c873"/><path d="M1419.33,798.43v-21h2.8v21Z" transform="translate(-1376.27 -620.2)" fill="#e6c873"/><path d="M1427.52,798.43v-2.59h-2.59v-10.6h2.59v-2.59h5.39v2.59h2.59v5.42h-7.77v4.94h4.93V793h2.84v2.83h-2.59v2.59Zm5.14-12.95h-4.93v2.35h4.93Z" transform="translate(-1376.27 -620.2)" fill="#e6c873"/><path d="M1440.89,798.43V785.48h-2.59v-2.83h2.59v-2.59h2.55v-2.59h2.84v2.83h-2.59v2.35h2.59v2.83h-2.59v12.95Z" transform="translate(-1376.27 -620.2)" fill="#e6c873"/><path d="M1453.21,798.43v-2.59h-2.59V785.48H1448v-2.83h2.59v-5.18h2.83v5.18H1456v2.83h-2.59V795.6H1456v2.83Z" transform="translate(-1376.27 -620.2)" fill="#e6c873"/><path d="M1465.21,780.3v-2.83H1468v2.83Zm0,18.13V782.65H1468v15.78Z" transform="translate(-1376.27 -620.2)" fill="#e6c873"/><path d="M1478.68,798.43V785.48h-4.93v12.95H1471V782.65h8v2.59h2.59v13.19Z" transform="translate(-1376.27 -620.2)" fill="#e6c873"/><path d="M1506.19,798.43V785.48h-4.93v12.95h-2.84V785.48h-4.93v12.95h-2.8V782.65h8v2.59H1501v-2.59h5.43v2.59H1509v13.19Z" transform="translate(-1376.27 -620.2)" fill="#e6c873"/><path d="M1514.35,798.43v-2.59h-2.59v-10.6h2.59v-2.59h5.39v2.59h2.59v5.42h-7.77v4.94h4.93V793h2.84v2.83h-2.59v2.59Zm5.14-12.95h-4.93v2.35h4.93Z" transform="translate(-1376.27 -620.2)" fill="#e6c873"/><path d="M1525.13,798.43V795.6h2.8v2.83Z" transform="translate(-1376.27 -620.2)" fill="#e6c873"/></g></svg>