<svg id="blue_dialogue" xmlns="http://www.w3.org/2000/svg" viewBox="0 0 391.62 214.24"><rect x="5" y="5" width="381.62" height="204.24" rx="28.96" fill="#13241a" stroke="#366056" stroke-miterlimit="10" stroke-width="10"/><g id="blue_lose"><path d="M1417.37,711.35v-5.18H1415v5.18h-2.84v-5.18h-2.55V698.4h-2.59v-8h2.8v7.77h2.59v7.77h2.34V690.38h2.84v15.54H1420v-7.77h2.59v-7.77h2.84v8h-2.59v7.77h-2.59v5.18Z" transform="translate(-1376.27 -620.2)" fill="#e6c873"/><path d="M1435.92,711.35v-13H1431v13h-2.8v-21h2.8v5.18h5.18v2.59h2.59v13.2Z" transform="translate(-1376.27 -620.2)" fill="#e6c873"/><path d="M1443.9,719.12v-2.59h-2.59v-2.84h2.84v2.59h4.93v-4.93h-5.18v-2.59h-2.59v-13.2h2.84v13h4.93v-13h2.84v21h-2.59v2.59Z" transform="translate(-1376.27 -620.2)" fill="#e6c873"/><path d="M1463.57,711.35v-2.59H1461V698.15h2.59v-2.59h5.18v-5.18h2.83v21Zm5.18-13h-4.94v10.11h4.94Z" transform="translate(-1376.27 -620.2)" fill="#e6c873"/><path d="M1476.8,711.35v-2.59h-2.59V698.15h2.59v-2.59h5.42v2.59h2.59v10.61h-2.59v2.59Zm5.18-13H1477v10.11H1482Z" transform="translate(-1376.27 -620.2)" fill="#e6c873"/><path d="M1495.17,711.35v-13h-4.93v13h-2.8V695.56h8v2.59H1498v13.2Z" transform="translate(-1376.27 -620.2)" fill="#e6c873"/><path d="M1500.42,695.81V693H1503v-5.18h2.84v5.43h-2.59v2.59Z" transform="translate(-1376.27 -620.2)" fill="#e6c873"/><path d="M1512.88,711.35v-2.59h-2.59V698.4h-2.59v-2.84h2.59v-5.18h2.84v5.18h2.59v2.84h-2.59v10.11h2.59v2.84Z" transform="translate(-1376.27 -620.2)" fill="#e6c873"/><path d="M1527.09,719.12v-2.59h-2.59v-2.84h2.84v2.59h4.93v-4.93h-5.18v-2.59h-2.59v-13.2h2.84v13h4.93v-13h2.84v21h-2.59v2.59Z" transform="translate(-1376.27 -620.2)" fill="#e6c873"/><path d="M1540.32,711.35v-2.59h-2.59V698.15h2.59v-2.59h5.43v2.59h2.59v10.61h-2.59v2.59Zm5.18-13h-4.93v10.11h4.93Z" transform="translate(-1376.27 -620.2)" fill="#e6c873"/><path d="M1553.38,711.35v-2.59h-2.59v-13.2h2.83v13h4.94v-13h2.83v15.79Z" transform="translate(-1376.27 -620.2)" fill="#e6c873"/><path d="M1573.05,711.35v-2.59h-2.59v-13.2h2.83v13h4.94v-13h2.83v15.79Z" transform="translate(-1376.27 -620.2)" fill="#e6c873"/><path d="M1591.59,711.35v-13h-4.93v13h-2.8V695.56h8v2.59h2.59v13.2Z" transform="translate(-1376.27 -620.2)" fill="#e6c873"/><path d="M1599.58,711.35v-2.59H1597V698.15h2.59v-2.59h5.17v-5.18h2.84v21Zm5.17-13h-4.93v10.11h4.93Z" transform="translate(-1376.27 -620.2)" fill="#e6c873"/><path d="M1613,711.35v-2.59h-2.59V698.15H1613v-2.59h5.39v2.59H1621v5.43h-7.77v4.93h4.93v-2.59H1621v2.84h-2.59v2.59Zm5.14-13h-4.93v2.34h4.93Z" transform="translate(-1376.27 -620.2)" fill="#e6c873"/><path d="M1623.76,711.35V695.56h2.8v2.59h2.34v-2.59h2.84v2.84h-2.59V701h-2.59v10.36Z" transform="translate(-1376.27 -620.2)" fill="#e6c873"/><path d="M1633.87,711.35v-2.84h7.77v-4.93h-5.18V701h-2.59v-2.84h2.59v-2.59h5.43v2.84h-5.18v2.34h5.18v2.59h2.59v5.43h-2.59v2.59Z" transform="translate(-1376.27 -620.2)" fill="#e6c873"/><path d="M1651.58,711.35v-2.59H1649V698.4h-2.59v-2.84H1649v-5.18h2.84v5.18h2.59v2.84h-2.59v10.11h2.59v2.84Z" transform="translate(-1376.27 -620.2)" fill="#e6c873"/><path d="M1667.05,711.35v-2.59h-2.38v2.59h-5.39v-2.59h-2.59v-5.43h2.59v-2.59h5.18V698.4h-5.18v-2.84h5.39v2.59h2.59v10.36h2.59v2.84Zm-2.59-7.77h-4.93v4.93h4.93Z" transform="translate(-1376.27 -620.2)" fill="#e6c873"/><path d="M1680.14,711.35v-13h-4.93v13h-2.8V695.56h8v2.59H1683v13.2Z" transform="translate(-1376.27 -620.2)" fill="#e6c873"/><path d="M1688.12,711.35v-2.59h-2.59V698.15h2.59v-2.59h5.18v-5.18h2.84v21Zm5.18-13h-4.93v10.11h4.93Z" transform="translate(-1376.27 -620.2)" fill="#e6c873"/><path d="M1701.53,706.17v-5.43h2.55v-2.59h2.59v-4.93h-4.93v5.18h-2.8V693h2.59v-2.59h5.39V693h2.59v5.43h-2.59V701h-2.59v5.18Zm0,5.18v-2.84h2.8v2.84Z" transform="translate(-1376.27 -620.2)" fill="#e6c873"/><path d="M1712.83,706.17V690.38h2.84v15.79Zm0,5.18v-2.84h2.84v2.84Z" transform="translate(-1376.27 -620.2)" fill="#e6c873"/><path d="M1417.37,753.35v-5.18H1415v5.18h-2.84v-5.18h-2.55V740.4h-2.59v-8h2.8v7.77h2.59v7.77h2.34V732.38h2.84v15.54H1420v-7.77h2.59v-7.77h2.84v8h-2.59v7.77h-2.59v5.18Z" transform="translate(-1376.27 -620.2)" fill="#e6c873"/><path d="M1435.92,753.35v-13H1431v13h-2.8v-21h2.8v5.18h5.18v2.59h2.59v13.2Z" transform="translate(-1376.27 -620.2)" fill="#e6c873"/><path d="M1443.9,761.12v-2.59h-2.59v-2.84h2.84v2.59h4.93v-4.93h-5.18v-2.59h-2.59v-13.2h2.84v13h4.93v-13h2.84v21h-2.59v2.59Z" transform="translate(-1376.27 -620.2)" fill="#e6c873"/><path d="M1463.75,753.35v-2.59h-2.6V740.15h2.6v-2.59h5.38v2.59h2.59V743h-2.83V740.4H1464v10.11h4.93v-2.59h2.83v2.84h-2.59v2.59Z" transform="translate(-1376.27 -620.2)" fill="#e6c873"/><path d="M1484.39,753.35v-2.59H1482v2.59h-5.39v-2.59H1474v-5.43h2.59v-2.59h5.18V740.4h-5.18v-2.84H1482v2.59h2.59v10.36h2.59v2.84Zm-2.59-7.77h-4.93v4.93h4.93Z" transform="translate(-1376.27 -620.2)" fill="#e6c873"/><path d="M1497.48,753.35v-13h-4.93v13h-2.8V737.56h8v2.59h2.59v13.2Z" transform="translate(-1376.27 -620.2)" fill="#e6c873"/><path d="M1502.73,737.81V735h2.59v-5.18h2.84v5.43h-2.59v2.59Z" transform="translate(-1376.27 -620.2)" fill="#e6c873"/><path d="M1515.19,753.35v-2.59h-2.59V740.4H1510v-2.84h2.59v-5.18h2.84v5.18H1518v2.84h-2.59v10.11H1518v2.84Z" transform="translate(-1376.27 -620.2)" fill="#e6c873"/><path d="M1529.4,761.12v-2.59h-2.59v-2.84h2.84v2.59h4.93v-4.93h-5.18v-2.59h-2.59v-13.2h2.84v13h4.93v-13h2.84v21h-2.59v2.59Z" transform="translate(-1376.27 -620.2)" fill="#e6c873"/><path d="M1542.63,753.35v-2.59H1540V740.15h2.59v-2.59h5.43v2.59h2.59v10.61h-2.59v2.59Zm5.18-13h-4.93v10.11h4.93Z" transform="translate(-1376.27 -620.2)" fill="#e6c873"/><path d="M1555.69,753.35v-2.59h-2.59v-13.2h2.83v13h4.94v-13h2.83v15.79Z" transform="translate(-1376.27 -620.2)" fill="#e6c873"/><path d="M1572,761.12v-2.84h2.59V737.56h2.84v21h-2.59v2.59Zm2.59-25.9v-2.84h2.84v2.84Z" transform="translate(-1376.27 -620.2)" fill="#e6c873"/><path d="M1582.57,753.35v-2.59H1580v-13.2h2.83v13h4.94v-13h2.83v15.79Z" transform="translate(-1376.27 -620.2)" fill="#e6c873"/><path d="M1593.28,753.35v-2.84h7.77v-4.93h-5.18V743h-2.59v-2.84h2.59v-2.59h5.42v2.84h-5.18v2.34h5.18v2.59h2.59v5.43h-2.59v2.59Z" transform="translate(-1376.27 -620.2)" fill="#e6c873"/><path d="M1611,753.35v-2.59h-2.59V740.4h-2.59v-2.84h2.59v-5.18h2.83v5.18h2.59v2.84h-2.59v10.11h2.59v2.84Z" transform="translate(-1376.27 -620.2)" fill="#e6c873"/><path d="M1622.78,753.35v-21h2.8v21Z" transform="translate(-1376.27 -620.2)" fill="#e6c873"/><path d="M1631,753.35v-2.59h-2.59V740.15H1631v-2.59h5.39v2.59H1639v5.43h-7.77v4.93h4.93v-2.59H1639v2.84h-2.59v2.59Zm5.14-13h-4.93v2.34h4.93Z" transform="translate(-1376.27 -620.2)" fill="#e6c873"/><path d="M1646.33,753.35v-2.59h-2.59V740.4h-2.59v-2.84h2.59v-5.18h2.84v5.18h2.59v2.84h-2.59v10.11h2.59v2.84Z" transform="translate(-1376.27 -620.2)" fill="#e6c873"/><path d="M1673.63,753.35v-13h-4.93v13h-2.84v-13h-4.93v13h-2.8V737.56h8v2.59h2.34v-2.59h5.43v2.59h2.59v13.2Z" transform="translate(-1376.27 -620.2)" fill="#e6c873"/><path d="M1681.79,753.35v-2.59h-2.59V740.15h2.59v-2.59h5.39v2.59h2.59v5.43H1682v4.93h4.93v-2.59h2.84v2.84h-2.59v2.59Zm5.14-13H1682v2.34h4.93Z" transform="translate(-1376.27 -620.2)" fill="#e6c873"/><path d="M1701.42,761.12v-2.59h-2.59v-2.84h2.84v2.59h4.93v-4.93h-5.18v-2.59h-2.59V740.15h2.59v-2.59h8v21h-2.59v2.59Zm5.18-20.72h-4.93v10.11h4.93Z" transform="translate(-1376.27 -620.2)" fill="#e6c873"/><path d="M1714.65,753.35v-2.59h-2.59V740.15h2.59v-2.59h5.43v2.59h2.59v10.61h-2.59v2.59Zm5.18-13h-4.93v10.11h4.93Z" transform="translate(-1376.27 -620.2)" fill="#e6c873"/><path d="M1727.88,748.17v-5.43h2.56v-2.59H1733v-4.93h-4.94v5.18h-2.8V735h2.59v-2.59h5.39V735h2.59v5.43h-2.59V743h-2.59v5.18Zm0,5.18v-2.84h2.8v2.84Z" transform="translate(-1376.27 -620.2)" fill="#e6c873"/><path d="M1739.19,748.17V732.38H1742v15.79Zm0,5.18v-2.84H1742v2.84Z" transform="translate(-1376.27 -620.2)" fill="#e6c873"/></g></svg>