<?xml-stylesheet type="text/css" href="svg.css" ?>
<svg id="blue_dialogue" xmlns="http://www.w3.org/2000/svg" viewBox="0 0 391.62 214.24"><rect x="5" y="5" width="381.62" height="204.24" rx="28.96" fill="#13241a" stroke="#366056" stroke-miterlimit="10" stroke-width="10"/><g id="blue1"><path d="M1419.33,672.43v-21h10.57v2.59h2.59v5.42h-2.59v2.35h2.59v8h-2.59v2.59Zm10.32-18.13h-7.52v4.94h7.52Zm0,7.77h-7.52v7.53h7.52Z" transform="translate(-1376.27 -620.2)" fill="#e6c873"/><path d="M1437.88,672.43v-2.59h-2.59v-10.6h2.59v-2.59h5.39v2.59h2.59v5.42h-7.77v4.94H1443V667h2.84v2.83h-2.59v2.59Zm5.14-12.95h-4.93v2.35H1443Z" transform="translate(-1376.27 -620.2)" fill="#e6c873"/><path d="M1451.25,672.43v-2.59h-2.59v-10.6h2.59v-2.59h5.39v2.59h2.59v2.83h-2.84v-2.59h-4.93V669.6h4.93V667h2.84v2.83h-2.59v2.59Z" transform="translate(-1376.27 -620.2)" fill="#e6c873"/><path d="M1471.9,672.43v-2.59h-2.38v2.59h-5.39v-2.59h-2.59v-5.42h2.59v-2.59h5.18v-2.35h-5.18v-2.83h5.39v2.59h2.59V669.6h2.59v2.83Zm-2.59-7.77h-4.94v4.94h4.94Z" transform="translate(-1376.27 -620.2)" fill="#e6c873"/><path d="M1479.67,672.43v-2.59h-2.59V656.65h2.83v13h4.94v-13h2.83v15.78Z" transform="translate(-1376.27 -620.2)" fill="#e6c873"/><path d="M1490.38,672.43V669.6h7.77v-4.94H1493v-2.59h-2.58v-2.83H1493v-2.59h5.43v2.83h-5.18v2.35h5.18v2.59H1501v5.42h-2.59v2.59Z" transform="translate(-1376.27 -620.2)" fill="#e6c873"/><path d="M1506.09,672.43v-2.59h-2.59v-10.6h2.59v-2.59h5.39v2.59h2.59v5.42h-7.77v4.94h4.94V667h2.83v2.83h-2.59v2.59Zm5.15-12.95h-4.94v2.35h4.94Z" transform="translate(-1376.27 -620.2)" fill="#e6c873"/><path d="M1531,672.43V659.48h-4.93v12.95h-2.8v-21h2.8v5.18h5.18v2.59h2.59v13.19Z" transform="translate(-1376.27 -620.2)" fill="#e6c873"/><path d="M1539.2,672.43v-2.59h-2.59v-10.6h2.59v-2.59h5.39v2.59h2.59v5.42h-7.77v4.94h4.93V667h2.84v2.83h-2.59v2.59Zm5.14-12.95h-4.93v2.35h4.93Z" transform="translate(-1376.27 -620.2)" fill="#e6c873"/><path d="M1556.42,680.2V656.65h8v2.59H1567v10.6h-2.59v2.59h-5.18v7.77Zm7.73-20.72h-4.93V669.6h4.93Z" transform="translate(-1376.27 -620.2)" fill="#e6c873"/><path d="M1569.54,672.43V656.65h2.8v2.59h2.35v-2.59h2.83v2.83h-2.59v2.59h-2.59v10.36Z" transform="translate(-1376.27 -620.2)" fill="#e6c873"/><path d="M1582.18,672.43v-2.59h-2.59v-10.6h2.59v-2.59h5.42v2.59h2.59v10.6h-2.59v2.59Zm5.18-12.95h-4.94V669.6h4.94Z" transform="translate(-1376.27 -620.2)" fill="#e6c873"/><path d="M1608.32,672.43V659.48h-4.93v12.95h-2.84V659.48h-4.93v12.95h-2.8V656.65h8v2.59h2.34v-2.59h5.43v2.59h2.59v13.19Z" transform="translate(-1376.27 -620.2)" fill="#e6c873"/><path d="M1614.1,654.3v-2.83h2.83v2.83Zm0,18.13V656.65h2.83v15.78Z" transform="translate(-1376.27 -620.2)" fill="#e6c873"/><path d="M1619.73,672.43V669.6h7.77v-4.94h-5.18v-2.59h-2.59v-2.83h2.59v-2.59h5.43v2.83h-5.18v2.35h5.18v2.59h2.59v5.42h-2.59v2.59Z" transform="translate(-1376.27 -620.2)" fill="#e6c873"/><path d="M1635.45,672.43v-2.59h-2.59v-10.6h2.59v-2.59h5.39v2.59h2.59v5.42h-7.77v4.94h4.93V667h2.84v2.83h-2.59v2.59Zm5.14-12.95h-4.93v2.35h4.93Z" transform="translate(-1376.27 -620.2)" fill="#e6c873"/><path d="M1648.64,672.43v-2.59h-2.59v-10.6h2.59v-2.59h5.18v-5.18h2.84v21Zm5.18-12.95h-4.93V669.6h4.93Z" transform="translate(-1376.27 -620.2)" fill="#e6c873"/><path d="M1434.83,714.43V701.48h-4.93v12.95h-2.84V701.48h-4.93v12.95h-2.8V698.65h8v2.59h2.34v-2.59h5.43v2.59h2.59v13.19Z" transform="translate(-1376.27 -620.2)" fill="#e6c873"/><path d="M1443,714.43v-2.59h-2.59v-10.6H1443v-2.59h5.39v2.59H1451v5.42h-7.77v4.94h4.93V709H1451v2.83h-2.59v2.59Zm5.14-12.95h-4.93v2.35h4.93Z" transform="translate(-1376.27 -620.2)" fill="#e6c873"/><path d="M1460.21,722.2V698.65h8v2.59h2.59v10.6h-2.59v2.59H1463v7.77Zm7.73-20.72H1463V711.6h4.93Z" transform="translate(-1376.27 -620.2)" fill="#e6c873"/><path d="M1475.75,714.43v-2.59h-2.59v-10.6h2.59v-2.59h5.42v2.59h2.59v10.6h-2.59v2.59Zm5.18-12.95H1476V711.6h4.94Z" transform="translate(-1376.27 -620.2)" fill="#e6c873"/><path d="M1496.15,714.43v-5.18h-2.35v5.18H1491v-5.18h-2.59v-5.18h-2.59v-5.42h2.83v5.18h2.59V709h2.35v-5.18h2.84V709h2.34v-5.18h2.59v-5.18h2.84v5.42h-2.59v5.18H1499v5.18Z" transform="translate(-1376.27 -620.2)" fill="#e6c873"/><path d="M1509.13,714.43v-2.59h-2.59v-10.6h2.59v-2.59h5.39v2.59h2.6v5.42h-7.78v4.94h4.94V709h2.84v2.83h-2.6v2.59Zm5.15-12.95h-4.94v2.35h4.94Z" transform="translate(-1376.27 -620.2)" fill="#e6c873"/><path d="M1519.91,714.43V698.65h2.8v2.59h2.35v-2.59h2.83v2.83h-2.59v2.59h-2.59v10.36Z" transform="translate(-1376.27 -620.2)" fill="#e6c873"/><path d="M1530.13,714.43V711.6h2.8v2.83Z" transform="translate(-1376.27 -620.2)" fill="#e6c873"/><path d="M1546.51,714.43V696.3h-5.18v-2.83h13.2v2.83h-5.18v18.13Z" transform="translate(-1376.27 -620.2)" fill="#e6c873"/><path d="M1564.22,714.43V701.48h-4.93v12.95h-2.8v-21h2.8v5.18h5.18v2.59h2.59v13.19Z" transform="translate(-1376.27 -620.2)" fill="#e6c873"/><path d="M1579.9,714.43v-2.59h-2.38v2.59h-5.39v-2.59h-2.59v-5.42h2.59v-2.59h5.18v-2.35h-5.18v-2.83h5.39v2.59h2.59V711.6h2.59v2.83Zm-2.59-7.77h-4.93v4.94h4.93Z" transform="translate(-1376.27 -620.2)" fill="#e6c873"/><path d="M1589.84,714.43v-2.59h-2.59V701.48h-2.59v-2.83h2.59v-5.18h2.84v5.18h2.59v2.83h-2.59V711.6h2.59v2.83Z" transform="translate(-1376.27 -620.2)" fill="#e6c873"/><path d="M1594.88,698.89v-2.83h2.59v-5.18h2.84v5.42h-2.59v2.59Z" transform="translate(-1376.27 -620.2)" fill="#e6c873"/><path d="M1602.65,714.43V711.6h7.77v-4.94h-5.18v-2.59h-2.59v-2.83h2.59v-2.59h5.43v2.83h-5.18v2.35h5.18v2.59h2.59v5.42h-2.59v2.59Z" transform="translate(-1376.27 -620.2)" fill="#e6c873"/><path d="M1632.33,714.43v-2.59H1630v2.59h-5.39v-2.59H1622v-5.42h2.59v-2.59h5.18v-2.35h-5.18v-2.83H1630v2.59h2.59V711.6h2.59v2.83Zm-2.59-7.77h-4.93v4.94h4.93Z" transform="translate(-1376.27 -620.2)" fill="#e6c873"/><path d="M1637.69,714.43v-21h2.8v21Z" transform="translate(-1376.27 -620.2)" fill="#e6c873"/><path d="M1643.29,714.43v-21h2.8v21Z" transform="translate(-1376.27 -620.2)" fill="#e6c873"/><path d="M1655.33,714.43v-21h2.79v21Z" transform="translate(-1376.27 -620.2)" fill="#e6c873"/><path d="M1421.92,756.43v-2.59h-2.59v-10.6h2.59v-2.59h5.39v2.59h2.59v5.42h-7.77v4.94h4.93V751h2.84v2.83h-2.59v2.59Zm5.14-12.95h-4.93v2.35h4.93Z" transform="translate(-1376.27 -620.2)" fill="#e6c873"/><path d="M1437.28,756.43v-5.18h-2.59v-5.18h-2.59v-5.42h2.84v5.18h2.59V751h2.34v-5.18h2.59v-5.18h2.84v5.42h-2.59v5.18h-2.59v5.18Z" transform="translate(-1376.27 -620.2)" fill="#e6c873"/><path d="M1450.34,756.43v-2.59h-2.59v-10.6h2.59v-2.59h5.39v2.59h2.59v5.42h-7.77v4.94h4.93V751h2.84v2.83h-2.59v2.59Zm5.14-12.95h-4.93v2.35h4.93Z" transform="translate(-1376.27 -620.2)" fill="#e6c873"/><path d="M1461.12,756.43V740.65h2.8v2.59h2.34v-2.59h2.84v2.83h-2.59v2.59h-2.59v10.36Z" transform="translate(-1376.27 -620.2)" fill="#e6c873"/><path d="M1485.51,756.43V743.48h-4.93v12.95h-2.81V740.65h8v2.59h2.59v13.19Z" transform="translate(-1376.27 -620.2)" fill="#e6c873"/><path d="M1493.67,756.43v-2.59h-2.6v-10.6h2.6v-2.59h5.38v2.59h2.59v5.42h-7.76v4.94h4.93V751h2.83v2.83h-2.59v2.59Zm5.14-12.95h-4.93v2.35h4.93Z" transform="translate(-1376.27 -620.2)" fill="#e6c873"/><path d="M1507,756.43v-2.59h-2.59v-10.6H1507v-2.59h5.39v2.59H1515v5.42h-7.77v4.94h4.94V751H1515v2.83h-2.59v2.59Zm5.15-12.95h-4.94v2.35h4.94Z" transform="translate(-1376.27 -620.2)" fill="#e6c873"/><path d="M1520.23,756.43v-2.59h-2.59v-10.6h2.59v-2.59h5.18v-5.18h2.83v21Zm5.18-12.95h-4.94V753.6h4.94Z" transform="translate(-1376.27 -620.2)" fill="#e6c873"/><path d="M1533.63,756.43v-2.59H1531v-10.6h2.59v-2.59H1539v2.59h2.59v5.42h-7.77v4.94h4.94V751h2.83v2.83H1539v2.59Zm5.15-12.95h-4.94v2.35h4.94Z" transform="translate(-1376.27 -620.2)" fill="#e6c873"/><path d="M1546.83,756.43v-2.59h-2.59v-10.6h2.59v-2.59H1552v-5.18h2.83v21Zm5.18-12.95h-4.94V753.6H1552Z" transform="translate(-1376.27 -620.2)" fill="#e6c873"/><path d="M1568.67,756.43v-2.59h-2.59V743.48h-2.59v-2.83h2.59v-5.18h2.83v5.18h2.59v2.83h-2.59V753.6h2.59v2.83Z" transform="translate(-1376.27 -620.2)" fill="#e6c873"/><path d="M1576.44,756.43v-2.59h-2.59v-10.6h2.59v-2.59h5.42v2.59h2.59v10.6h-2.59v2.59Zm5.18-12.95h-4.94V753.6h4.94Z" transform="translate(-1376.27 -620.2)" fill="#e6c873"/><path d="M1603.63,756.43v-2.59h-2.38v2.59h-5.39v-2.59h-2.59v-5.42h2.59v-2.59H1601v-2.35h-5.18v-2.83h5.39v2.59h2.59V753.6h2.59v2.83Zm-2.59-7.77h-4.93v4.94H1601Z" transform="translate(-1376.27 -620.2)" fill="#e6c873"/><path d="M1613.57,756.43v-5.18H1611v-5.18h-2.59v-5.42h2.84v5.18h2.59V751h2.34v-5.18h2.59v-5.18h2.84v5.42H1619v5.18h-2.59v5.18Z" transform="translate(-1376.27 -620.2)" fill="#e6c873"/><path d="M1626.63,756.43v-2.59H1624v-10.6h2.59v-2.59H1632v2.59h2.59v5.42h-7.77v4.94h4.93V751h2.84v2.83H1632v2.59Zm5.14-12.95h-4.93v2.35h4.93Z" transform="translate(-1376.27 -620.2)" fill="#e6c873"/><path d="M1645.14,756.43V743.48h-4.93v12.95h-2.8V740.65h8v2.59h2.6v13.19Z" transform="translate(-1376.27 -620.2)" fill="#e6c873"/><path d="M1653.12,764.2v-2.59h-2.59v-2.83h2.84v2.59h4.93v-4.94h-5.18v-2.59h-2.59v-10.6h2.59v-2.59h8v21h-2.59v2.59Zm5.18-20.72h-4.93V753.6h4.93Z" transform="translate(-1376.27 -620.2)" fill="#e6c873"/><path d="M1666.52,756.43v-2.59h-2.59v-10.6h2.59v-2.59h5.39v2.59h2.59v5.42h-7.77v4.94h4.94V751h2.83v2.83h-2.59v2.59Zm5.15-12.95h-4.94v2.35h4.94Z" transform="translate(-1376.27 -620.2)" fill="#e6c873"/><path d="M1421.92,798.43V785.48h-2.59v-2.83h2.59v-2.59h2.55v-2.59h2.84v2.83h-2.59v2.35h2.59v2.83h-2.59v12.95Z" transform="translate(-1376.27 -620.2)" fill="#e6c873"/><path d="M1432.07,798.43v-2.59h-2.59v-10.6h2.59v-2.59h5.42v2.59h2.59v10.6h-2.59v2.59Zm5.18-12.95h-4.94V795.6h4.94Z" transform="translate(-1376.27 -620.2)" fill="#e6c873"/><path d="M1442.71,798.43V782.65h2.8v2.59h2.34v-2.59h2.84v2.83h-2.59v2.59h-2.59v10.36Z" transform="translate(-1376.27 -620.2)" fill="#e6c873"/><path d="M1474.87,798.43V785.48h-4.93v12.95h-2.84V785.48h-4.93v12.95h-2.8V782.65h8v2.59h2.35v-2.59h5.43v2.59h2.59v13.19Z" transform="translate(-1376.27 -620.2)" fill="#e6c873"/><path d="M1482.85,806.2v-2.59h-2.59v-2.83h2.83v2.59H1488v-4.94h-5.18v-2.59h-2.59V782.65h2.83v13H1488v-13h2.84v21h-2.59v2.59Z" transform="translate(-1376.27 -620.2)" fill="#e6c873"/><path d="M1500.1,806.2V782.65h8v2.59h2.59v10.6h-2.59v2.59h-5.18v7.77Zm7.74-20.72h-4.94V795.6h4.94Z" transform="translate(-1376.27 -620.2)" fill="#e6c873"/><path d="M1515.82,798.43v-2.59h-2.59v-10.6h2.59v-2.59h5.39v2.59h2.59v5.42H1516v4.94H1521V793h2.84v2.83h-2.59v2.59Zm5.14-12.95H1516v2.35H1521Z" transform="translate(-1376.27 -620.2)" fill="#e6c873"/><path d="M1529,798.43v-2.59h-2.59v-10.6H1529v-2.59h5.43v2.59H1537v10.6h-2.59v2.59Zm5.18-12.95h-4.93V795.6h4.93Z" transform="translate(-1376.27 -620.2)" fill="#e6c873"/><path d="M1539.65,806.2V782.65h8v2.59h2.59v10.6h-2.59v2.59h-5.18v7.77Zm7.74-20.72h-4.94V795.6h4.94Z" transform="translate(-1376.27 -620.2)" fill="#e6c873"/><path d="M1552.78,798.43v-21h2.8v21Z" transform="translate(-1376.27 -620.2)" fill="#e6c873"/><path d="M1561,798.43v-2.59h-2.59v-10.6H1561v-2.59h5.39v2.59H1569v5.42h-7.77v4.94h4.93V793H1569v2.83h-2.59v2.59Zm5.14-12.95h-4.93v2.35h4.93Z" transform="translate(-1376.27 -620.2)" fill="#e6c873"/><path d="M1571.75,798.43V795.6h2.8v2.83Z" transform="translate(-1376.27 -620.2)" fill="#e6c873"/></g></svg>