<svg id="blue_dialogue" xmlns="http://www.w3.org/2000/svg" viewBox="0 0 391.62 214.24"><rect x="5" y="5" width="381.62" height="204.24" rx="28.96" fill="#13241a" stroke="#366056" stroke-miterlimit="10" stroke-width="10"/><g id="blue_win"><path d="M1407.05,689.67v-21h10.57v2.84h-7.77v4.93H1415v2.83h-5.18v10.37Z" transform="translate(-1376.27 -620.2)" fill="#e6c873"/><path d="M1419.65,689.67V673.88h2.8v2.59h2.34v-2.59h2.84v2.83H1425v2.59h-2.59v10.37Z" transform="translate(-1376.27 -620.2)" fill="#e6c873"/><path d="M1432.28,689.67v-2.59h-2.59V676.47h2.59v-2.59h5.43v2.59h2.59v10.61h-2.59v2.59Zm5.18-13h-4.93v10.12h4.93Z" transform="translate(-1376.27 -620.2)" fill="#e6c873"/><path d="M1458.42,689.67v-13h-4.93v13h-2.83v-13h-4.94v13h-2.8V673.88h8v2.59h2.35v-2.59h5.42v2.59h2.59v13.2Z" transform="translate(-1376.27 -620.2)" fill="#e6c873"/><path d="M1478.16,689.67v-13h-4.93v13h-2.8V673.88h8v2.59H1481v13.2Z" transform="translate(-1376.27 -620.2)" fill="#e6c873"/><path d="M1486.14,689.67v-2.59h-2.59V676.47h2.59v-2.59h5.43v2.59h2.59v10.61h-2.59v2.59Zm5.18-13h-4.93v10.12h4.93Z" transform="translate(-1376.27 -620.2)" fill="#e6c873"/><path d="M1506.55,689.67v-5.18h-2.35v5.18h-2.83v-5.18h-2.59V679.3h-2.59v-5.42H1499v5.18h2.59v5.18H1504v-5.18h2.83v5.18h2.35v-5.18h2.59v-5.18h2.83v5.42H1512v5.19h-2.59v5.18Z" transform="translate(-1376.27 -620.2)" fill="#e6c873"/><path d="M1525.8,689.67v-2.59h-2.59V676.47h2.59v-2.59h5.42v2.59h2.59v10.61h-2.59v2.59Zm5.18-13H1526v10.12H1531Z" transform="translate(-1376.27 -620.2)" fill="#e6c873"/><path d="M1544.17,689.67v-13h-4.93v13h-2.8V673.88h8v2.59H1547v13.2Z" transform="translate(-1376.27 -620.2)" fill="#e6c873"/><path d="M1549.74,694.84V692h2.59v-5.18h2.8v5.42h-2.59v2.59Z" transform="translate(-1376.27 -620.2)" fill="#e6c873"/><path d="M1566.78,697.43v-2.59h-2.59V692H1567v2.59H1572v-4.93h-5.18v-2.59h-2.59v-13.2H1567v13H1572v-13h2.84v21h-2.59v2.59Z" transform="translate(-1376.27 -620.2)" fill="#e6c873"/><path d="M1580,689.67v-2.59h-2.59V676.47H1580v-2.59h5.43v2.59H1588v10.61h-2.59v2.59Zm5.18-13h-4.93v10.12h4.93Z" transform="translate(-1376.27 -620.2)" fill="#e6c873"/><path d="M1593.07,689.67v-2.59h-2.59v-13.2h2.83v13h4.94v-13h2.83v15.79Z" transform="translate(-1376.27 -620.2)" fill="#e6c873"/><path d="M1603.57,674.12v-2.83h2.59v-5.18H1609v5.43h-2.59v2.58Z" transform="translate(-1376.27 -620.2)" fill="#e6c873"/><path d="M1611.44,689.67V673.88h2.8v2.59h2.34v-2.59h2.84v2.83h-2.59v2.59h-2.59v10.37Z" transform="translate(-1376.27 -620.2)" fill="#e6c873"/><path d="M1624.25,689.67v-2.59h-2.59V676.47h2.59v-2.59h5.39v2.59h2.59v5.43h-7.77v4.93h4.93v-2.59h2.84v2.84h-2.59v2.59Zm5.14-13h-4.93v2.35h4.93Z" transform="translate(-1376.27 -620.2)" fill="#e6c873"/><path d="M1649.2,689.67v-13h-4.93v13h-2.8V673.88h8v2.59H1652v13.2Z" transform="translate(-1376.27 -620.2)" fill="#e6c873"/><path d="M1657.18,689.67v-2.59h-2.59V676.47h2.59v-2.59h5.43v2.59h2.59v10.61h-2.59v2.59Zm5.18-13h-4.93v10.12h4.93Z" transform="translate(-1376.27 -620.2)" fill="#e6c873"/><path d="M1672.41,689.67v-2.59h-2.59V676.71h-2.59v-2.83h2.59V668.7h2.83v5.18h2.59v2.83h-2.59v10.12h2.59v2.84Z" transform="translate(-1376.27 -620.2)" fill="#e6c873"/><path d="M1685.5,689.67v-13h-4.94v13h-2.8v-21h2.8v5.18h5.18v2.59h2.59v13.2Z" transform="translate(-1376.27 -620.2)" fill="#e6c873"/><path d="M1691.27,671.54V668.7h2.84v2.84Zm0,18.13V673.88h2.84v15.79Z" transform="translate(-1376.27 -620.2)" fill="#e6c873"/><path d="M1704.75,689.67v-13h-4.94v13H1697V673.88h8v2.59h2.59v13.2Z" transform="translate(-1376.27 -620.2)" fill="#e6c873"/><path d="M1712.73,697.43v-2.59h-2.59V692H1713v2.59h4.94v-4.93h-5.18v-2.59h-2.59V676.47h2.59v-2.59h8v21h-2.59v2.59Zm5.18-20.72H1713v10.12h4.94Z" transform="translate(-1376.27 -620.2)" fill="#e6c873"/><path d="M1422.55,731.67v-13h-4.93v13h-2.84v-13h-4.93v13h-2.8V715.88h8v2.59h2.34v-2.59h5.43v2.59h2.59v13.2Z" transform="translate(-1376.27 -620.2)" fill="#e6c873"/><path d="M1430.53,731.67v-2.59h-2.59V718.47h2.59v-2.59H1436v2.59h2.59v10.61H1436v2.59Zm5.18-13h-4.93v10.12h4.93Z" transform="translate(-1376.27 -620.2)" fill="#e6c873"/><path d="M1441.17,731.67V715.88h2.8v2.59h2.35v-2.59h2.83v2.83h-2.59v2.59H1444v10.37Z" transform="translate(-1376.27 -620.2)" fill="#e6c873"/><path d="M1454,731.67v-2.59h-2.59V718.47H1454v-2.59h5.39v2.59H1462v5.43h-7.77v4.93h4.93v-2.59H1462v2.84h-2.59v2.59Zm5.14-13h-4.93v2.35h4.93Z" transform="translate(-1376.27 -620.2)" fill="#e6c873"/><path d="M1475.78,731.67v-2.59h-2.59V718.71h-2.59v-2.83h2.59V710.7H1476v5.18h2.59v2.83H1476v10.12h2.59v2.84Z" transform="translate(-1376.27 -620.2)" fill="#e6c873"/><path d="M1488.87,731.67v-13h-4.93v13h-2.8v-21h2.8v5.18h5.18v2.59h2.59v13.2Z" transform="translate(-1376.27 -620.2)" fill="#e6c873"/><path d="M1504.55,731.67v-2.59h-2.38v2.59h-5.39v-2.59h-2.59v-5.43h2.59v-2.59H1502v-2.35h-5.18v-2.83h5.39v2.59h2.59v10.36h2.59v2.84ZM1502,723.9H1497v4.93H1502Z" transform="translate(-1376.27 -620.2)" fill="#e6c873"/><path d="M1517.64,731.67v-13h-4.93v13h-2.8V715.88h8v2.59h2.59v13.2Z" transform="translate(-1376.27 -620.2)" fill="#e6c873"/><path d="M1539.76,731.67v-2.59h-2.38v2.59H1532v-2.59h-2.59v-5.43H1532v-2.59h5.18v-2.35H1532v-2.83h5.39v2.59H1540v10.36h2.59v2.84Zm-2.59-7.77h-4.93v4.93h4.93Z" transform="translate(-1376.27 -620.2)" fill="#e6c873"/><path d="M1551.45,731.67v-2.84h7.77V723.9H1554v-2.6h-2.59v-2.83H1554v-2.59h5.43v2.83h-5.18v2.35h5.18v2.59h2.59v5.43h-2.59v2.59Z" transform="translate(-1376.27 -620.2)" fill="#e6c873"/><path d="M1569.16,731.67v-2.59h-2.59V718.71H1564v-2.83h2.59V710.7h2.84v5.18H1572v2.83h-2.59v10.12H1572v2.84Z" transform="translate(-1376.27 -620.2)" fill="#e6c873"/><path d="M1574.52,731.67V715.88h2.8v2.59h2.34v-2.59h2.84v2.83h-2.59v2.59h-2.59v10.37Z" transform="translate(-1376.27 -620.2)" fill="#e6c873"/><path d="M1594.85,731.67v-2.59h-2.38v2.59h-5.39v-2.59h-2.59v-5.43h2.59v-2.59h5.18v-2.35h-5.18v-2.83h5.39v2.59h2.59v10.36h2.59v2.84Zm-2.59-7.77h-4.93v4.93h4.93Z" transform="translate(-1376.27 -620.2)" fill="#e6c873"/><path d="M1607.94,731.67v-13H1603v13h-2.8V715.88h8v2.59h2.59v13.2Z" transform="translate(-1376.27 -620.2)" fill="#e6c873"/><path d="M1615.92,739.43v-2.59h-2.59V734h2.84v2.59h4.93v-4.93h-5.18v-2.59h-2.59V718.47h2.59v-2.59h8v21h-2.59v2.59Zm5.18-20.72h-4.93v10.12h4.93Z" transform="translate(-1376.27 -620.2)" fill="#e6c873"/><path d="M1629.33,731.67v-2.59h-2.59V718.47h2.59v-2.59h5.39v2.59h2.59v5.43h-7.77v4.93h4.93v-2.59h2.84v2.84h-2.59v2.59Zm5.14-13h-4.93v2.35h4.93Z" transform="translate(-1376.27 -620.2)" fill="#e6c873"/><path d="M1640.11,731.67V715.88h2.8v2.59h2.34v-2.59h2.84v2.83h-2.59v2.59h-2.59v10.37Z" transform="translate(-1376.27 -620.2)" fill="#e6c873"/><path d="M1661.35,731.67v-2.59h-2.59V718.71h-2.59v-2.83h2.59V710.7h2.83v5.18h2.59v2.83h-2.59v10.12h2.59v2.84Z" transform="translate(-1376.27 -620.2)" fill="#e6c873"/><path d="M1669.12,731.67v-2.59h-2.59V718.47h2.59v-2.59h5.42v2.59h2.59v10.61h-2.59v2.59Zm5.18-13h-4.93v10.12h4.93Z" transform="translate(-1376.27 -620.2)" fill="#e6c873"/><path d="M1701.7,731.67v-13h-4.93v13h-2.84v-13H1689v13h-2.8V715.88h8v2.59h2.34v-2.59H1702v2.59h2.59v13.2Z" transform="translate(-1376.27 -620.2)" fill="#e6c873"/><path d="M1709.86,731.67v-2.59h-2.59V718.47h2.59v-2.59h5.39v2.59h2.59v5.43h-7.77v4.93H1715v-2.59h2.84v2.84h-2.59v2.59Zm5.14-13h-4.93v2.35H1715Z" transform="translate(-1376.27 -620.2)" fill="#e6c873"/><path d="M1720.64,731.67v-2.84h2.8v2.84Z" transform="translate(-1376.27 -620.2)" fill="#e6c873"/><path d="M1417.37,773.67v-2.59h-2.59V765.9h-2.59v-5.19h-2.34v13h-2.8v-21h2.8v2.59h2.59v5.18H1415v5.18h2.34V752.7h2.84v21Z" transform="translate(-1376.27 -620.2)" fill="#e6c873"/><path d="M1425.6,773.67v-2.59H1423V760.47h2.59v-2.59H1431v2.59h2.59v5.43h-7.77v4.93h4.93v-2.59h2.84v2.84H1431v2.59Zm5.14-13h-4.93v2.35h4.93Z" transform="translate(-1376.27 -620.2)" fill="#e6c873"/><path d="M1444.11,773.67V765.9h-4.93v7.77h-2.8v-8H1439V763.3h-2.59v-5.42h2.8v5.18h4.93v-5.18H1447v5.42h-2.59v2.35H1447v8Z" transform="translate(-1376.27 -620.2)" fill="#e6c873"/><path d="M1454.33,773.67v-2.59h-2.59V760.71h-2.59v-2.83h2.59V752.7h2.84v5.18h2.59v2.83h-2.59v10.12h2.59v2.84Z" transform="translate(-1376.27 -620.2)" fill="#e6c873"/><path d="M1470.71,773.67v-2.59h-2.59V760.71h-2.59v-2.83h2.59V752.7H1471v5.18h2.58v2.83H1471v10.12h2.58v2.84Z" transform="translate(-1376.27 -620.2)" fill="#e6c873"/><path d="M1476.27,755.54V752.7h2.84v2.84Zm0,18.13V757.88h2.84v15.79Z" transform="translate(-1376.27 -620.2)" fill="#e6c873"/><path d="M1497.52,773.67v-13h-4.94v13h-2.83v-13h-4.94v13H1482V757.88h8v2.59h2.35v-2.59h5.42v2.59h2.59v13.2Z" transform="translate(-1376.27 -620.2)" fill="#e6c873"/><path d="M1505.67,773.67v-2.59h-2.59V760.47h2.59v-2.59h5.39v2.59h2.59v5.43h-7.77v4.93h4.94v-2.59h2.83v2.84h-2.59v2.59Zm5.15-13h-4.94v2.35h4.94Z" transform="translate(-1376.27 -620.2)" fill="#e6c873"/><path d="M1522.89,773.67v-21h2.8v21Z" transform="translate(-1376.27 -620.2)" fill="#e6c873"/><path d="M1544.7,773.67v-5.18h-2.35v5.18h-2.83v-5.18h-2.59V763.3h-2.59v-5.42h2.83v5.18h2.59v5.18h2.35v-5.18h2.83v5.18h2.35v-5.18h2.59v-5.18h2.83v5.42h-2.59v5.19h-2.59v5.18Z" transform="translate(-1376.27 -620.2)" fill="#e6c873"/><path d="M1555.3,755.54V752.7h2.84v2.84Zm0,18.13V757.88h2.84v15.79Z" transform="translate(-1376.27 -620.2)" fill="#e6c873"/><path d="M1561,773.67v-21h2.8v21Z" transform="translate(-1376.27 -620.2)" fill="#e6c873"/><path d="M1566.64,773.67v-21h2.8v21Z" transform="translate(-1376.27 -620.2)" fill="#e6c873"/><path d="M1586.42,773.67v-2.59h-2.59v-2.59h-2.35V774h-2.8V752.7h2.8v10.36h2.35v-2.59h2.59v-2.59h2.83v2.83h-2.59v2.59h-2.59v4.94h2.59v2.59h2.59v2.84Z" transform="translate(-1376.27 -620.2)" fill="#e6c873"/><path d="M1592,755.54V752.7h2.83v2.84Zm0,18.13V757.88h2.83v15.79Z" transform="translate(-1376.27 -620.2)" fill="#e6c873"/><path d="M1597.75,773.67v-21h2.81v21Z" transform="translate(-1376.27 -620.2)" fill="#e6c873"/><path d="M1603.35,773.67v-21h2.81v21Z" transform="translate(-1376.27 -620.2)" fill="#e6c873"/><path d="M1617.81,781.43v-2.59h-2.59V776h2.83v2.59H1623v-4.93h-5.18v-2.59h-2.59v-13.2h2.83v13H1623v-13h2.83v21h-2.59v2.59Z" transform="translate(-1376.27 -620.2)" fill="#e6c873"/><path d="M1631,773.67v-2.59h-2.59V760.47H1631v-2.59h5.42v2.59h2.59v10.61h-2.59v2.59Zm5.18-13h-4.94v10.12h4.94Z" transform="translate(-1376.27 -620.2)" fill="#e6c873"/><path d="M1644.09,773.67v-2.59h-2.59v-13.2h2.84v13h4.93v-13h2.84v15.79Z" transform="translate(-1376.27 -620.2)" fill="#e6c873"/><path d="M1654.91,773.67v-2.84h2.8v2.84Z" transform="translate(-1376.27 -620.2)" fill="#e6c873"/></g></svg>