
<?xml-stylesheet type="text/css" href="svg.css" ?>
<svg id="cloud" xmlns="http://www.w3.org/2000/svg" viewBox="0 0 2356.75 270.68"><path id="cloud_left" d="M1023.56,340.4c22.89-32-382.91-44.8-651.47-46.23C195.27,296.07,32.71,304.6-71.24,340.4c-108.48,26.52-8.85,44.24,269.27,54.4,72.91,8.36,107.69-21.31,152.3-29.92C437.64,335.35,706.59,500,943.25,375.76,983.21,387.45,1008.34,372.76,1023.56,340.4Z" transform="translate(114.19 -152.09)" opacity="0.2"/><path id="cloud_right" d="M2241.64,198.33c22.9-32-382.91-44.81-651.46-46.24-176.83,1.9-339.39,10.44-443.33,46.24-108.48,26.52-8.85,44.23,269.26,54.39,72.92,8.36,107.7-21.31,152.31-29.91,89.56-53.12,369.73-6.16,592.92,10.87C2201.29,245.38,2226.43,230.69,2241.64,198.33Z" transform="translate(114.19 -152.09)" opacity="0.2"/></svg>