<?xml-stylesheet type="text/css" href="svg.css" ?>
<svg id="rain" xmlns="http://www.w3.org/2000/svg" viewBox="0 0 1808.16 923.67"><g id="rain1"><rect x="172.88" y="66.81" width="2.95" height="61.97" transform="translate(-59.06 -53.73) rotate(16.86)" fill="#969696" opacity="0.6"/><rect x="152.6" y="177.19" width="2.95" height="61.97" transform="translate(-27.91 -43.11) rotate(16.86)" fill="#969696" opacity="0.6"/><rect x="190.74" y="223.2" width="2.95" height="61.97" transform="translate(-12.93 -52.19) rotate(16.86)" fill="#969696" opacity="0.6"/><rect x="261.79" y="151.69" width="2.95" height="61.97" transform="translate(-30.62 -75.87) rotate(16.86)" fill="#969696" opacity="0.6"/><rect x="316.34" y="24.14" width="2.95" height="61.97" transform="translate(-65.27 -97.18) rotate(16.86)" fill="#969696" opacity="0.6"/><rect x="343.07" y="121.1" width="2.95" height="61.97" transform="translate(-35.99 -100.76) rotate(16.86)" fill="#969696" opacity="0.6"/><rect x="423.48" y="132.96" width="2.95" height="61.97" transform="translate(-29.1 -123.58) rotate(16.86)" fill="#969696" opacity="0.6"/><rect x="1108.27" y="328.34" width="2.95" height="61.97" transform="translate(57.01 -313.8) rotate(16.86)" fill="#969696" opacity="0.6"/><rect x="1087.99" y="438.73" width="2.95" height="61.97" transform="translate(88.16 -303.18) rotate(16.86)" fill="#969696" opacity="0.6"/><rect x="1197.17" y="413.23" width="2.95" height="61.97" transform="translate(85.46 -335.94) rotate(16.86)" fill="#969696" opacity="0.6"/><rect x="1251.73" y="285.68" width="2.95" height="61.97" transform="translate(50.81 -357.25) rotate(16.86)" fill="#969696" opacity="0.6"/><rect x="1278.45" y="382.64" width="2.95" height="61.97" transform="translate(80.08 -360.83) rotate(16.86)" fill="#969696" opacity="0.6"/><rect x="1358.86" y="394.5" width="2.95" height="61.97" transform="translate(86.98 -383.65) rotate(16.86)" fill="#969696" opacity="0.6"/><rect x="221.42" y="437.82" width="2.95" height="61.97" transform="translate(50.64 -51.86) rotate(16.86)" fill="#969696" opacity="0.6"/><rect x="364.88" y="395.16" width="2.95" height="61.97" transform="translate(44.43 -95.31) rotate(16.86)" fill="#969696" opacity="0.6"/><rect x="674.98" y="313.55" width="2.95" height="61.97" transform="translate(34.1 -188.76) rotate(16.86)" fill="#969696" opacity="0.6"/><rect x="654.7" y="423.93" width="2.95" height="61.97" transform="translate(65.24 -178.14) rotate(16.86)" fill="#969696" opacity="0.6"/><rect x="763.89" y="398.44" width="2.95" height="61.97" transform="translate(62.54 -210.9) rotate(16.86)" fill="#969696" opacity="0.6"/><rect x="818.44" y="270.89" width="2.95" height="61.97" transform="translate(27.89 -232.21) rotate(16.86)" fill="#969696" opacity="0.6"/><rect x="845.17" y="367.85" width="2.95" height="61.97" transform="translate(57.16 -235.79) rotate(16.86)" fill="#969696" opacity="0.6"/><rect x="925.58" y="379.7" width="2.95" height="61.97" transform="translate(64.06 -258.61) rotate(16.86)" fill="#969696" opacity="0.6"/><rect x="465.59" y="159.72" width="2.95" height="61.97" transform="translate(-19.53 -134.64) rotate(16.86)" fill="#969696" opacity="0.6"/><rect x="445.32" y="270.1" width="2.95" height="61.97" transform="translate(11.62 -124.02) rotate(16.86)" fill="#969696" opacity="0.6"/><rect x="483.46" y="316.12" width="2.95" height="61.97" transform="translate(26.61 -133.1) rotate(16.86)" fill="#969696" opacity="0.6"/><rect x="554.5" y="244.61" width="2.95" height="61.97" transform="translate(8.92 -156.78) rotate(16.86)" fill="#969696" opacity="0.6"/><rect x="609.05" y="117.06" width="2.95" height="61.97" transform="translate(-25.73 -178.09) rotate(16.86)" fill="#969696" opacity="0.6"/><rect x="635.78" y="214.02" width="2.95" height="61.97" transform="translate(3.54 -181.67) rotate(16.86)" fill="#969696" opacity="0.6"/><rect x="716.19" y="225.87" width="2.95" height="61.97" transform="translate(10.44 -204.49) rotate(16.86)" fill="#969696" opacity="0.6"/><rect x="1253.42" y="64.24" width="2.95" height="61.97" transform="translate(-13.35 -367.26) rotate(16.86)" fill="#969696" opacity="0.6"/><rect x="1233.15" y="174.62" width="2.95" height="61.97" transform="translate(17.79 -356.64) rotate(16.86)" fill="#969696" opacity="0.6"/><rect x="1271.29" y="220.63" width="2.95" height="61.97" transform="translate(32.78 -365.72) rotate(16.86)" fill="#969696" opacity="0.6"/><rect x="1342.33" y="149.12" width="2.95" height="61.97" transform="translate(15.09 -389.4) rotate(16.86)" fill="#969696" opacity="0.6"/><rect x="1396.88" y="21.57" width="2.95" height="61.97" transform="translate(-19.56 -410.71) rotate(16.86)" fill="#969696" opacity="0.6"/><rect x="1423.61" y="118.53" width="2.95" height="61.97" transform="translate(9.71 -414.29) rotate(16.86)" fill="#969696" opacity="0.6"/><rect x="1504.02" y="130.39" width="2.95" height="61.97" transform="translate(16.61 -437.11) rotate(16.86)" fill="#969696" opacity="0.6"/><rect x="1010.97" y="49.12" width="2.95" height="61.97" transform="translate(-28.16 -297.59) rotate(16.86)" fill="#969696" opacity="0.6"/><rect x="990.69" y="159.51" width="2.95" height="61.97" transform="translate(2.99 -286.96) rotate(16.86)" fill="#969696" opacity="0.6"/><rect x="1028.83" y="205.52" width="2.95" height="61.97" transform="translate(17.97 -296.04) rotate(16.86)" fill="#969696" opacity="0.6"/><rect x="1099.88" y="134.01" width="2.95" height="61.97" transform="translate(0.29 -319.73) rotate(16.86)" fill="#969696" opacity="0.6"/><rect x="1154.43" y="6.46" width="2.95" height="61.97" transform="translate(-34.37 -341.03) rotate(16.86)" fill="#969696" opacity="0.6"/><rect x="1181.16" y="103.42" width="2.95" height="61.97" transform="translate(-5.09 -344.62) rotate(16.86)" fill="#969696" opacity="0.6"/><rect x="1261.57" y="115.27" width="2.95" height="61.97" transform="translate(1.8 -367.43) rotate(16.86)" fill="#969696" opacity="0.6"/><rect x="1557.15" y="400.77" width="2.95" height="61.97" transform="translate(97.32 -440.89) rotate(16.86)" fill="#969696" opacity="0.6"/><rect x="1700.61" y="358.11" width="2.95" height="61.97" transform="translate(91.11 -484.34) rotate(16.86)" fill="#969696" opacity="0.6"/><rect x="1640.61" y="94.83" width="2.95" height="61.97" transform="translate(12.17 -478.25) rotate(16.86)" fill="#969696" opacity="0.6"/><rect x="1620.33" y="205.21" width="2.95" height="61.97" transform="translate(43.31 -467.63) rotate(16.86)" fill="#969696" opacity="0.6"/><rect x="1658.47" y="251.22" width="2.95" height="61.97" transform="translate(58.3 -476.71) rotate(16.86)" fill="#969696" opacity="0.6"/><rect x="1729.52" y="179.71" width="2.95" height="61.97" transform="translate(40.61 -500.39) rotate(16.86)" fill="#969696" opacity="0.6"/><rect x="1784.07" y="52.16" width="2.95" height="61.97" transform="translate(5.96 -521.7) rotate(16.86)" fill="#969696" opacity="0.6"/><rect x="1810.8" y="149.12" width="2.95" height="61.97" transform="translate(35.23 -525.28) rotate(16.86)" fill="#969696" opacity="0.6"/><rect x="1891.21" y="160.98" width="2.95" height="61.97" transform="translate(42.13 -548.1) rotate(16.86)" fill="#969696" opacity="0.6"/></g><g id="rain2"><rect x="1126.13" y="484.74" width="2.95" height="61.97" transform="translate(103.15 -312.26) rotate(16.86)" fill="#969696" opacity="0.6"/><rect x="201.14" y="548.2" width="2.95" height="61.97" transform="translate(81.79 -41.23) rotate(16.86)" fill="#969696" opacity="0.6"/><rect x="239.28" y="594.22" width="2.95" height="61.97" transform="translate(96.77 -50.32) rotate(16.86)" fill="#969696" opacity="0.6"/><rect x="310.33" y="522.71" width="2.95" height="61.97" transform="translate(79.09 -74) rotate(16.86)" fill="#969696" opacity="0.6"/><rect x="391.6" y="492.12" width="2.95" height="61.97" transform="translate(73.71 -98.89) rotate(16.86)" fill="#969696" opacity="0.6"/><rect x="472.01" y="503.97" width="2.95" height="61.97" transform="translate(80.6 -121.7) rotate(16.86)" fill="#969696" opacity="0.6"/><rect x="497.55" y="650.53" width="2.95" height="61.97" transform="translate(124.21 -122.81) rotate(16.86)" fill="#969696" opacity="0.6"/><rect x="477.28" y="760.91" width="2.95" height="61.97" transform="translate(155.36 -112.19) rotate(16.86)" fill="#969696" opacity="0.6"/><rect x="515.42" y="806.93" width="2.95" height="61.97" transform="translate(170.34 -121.27) rotate(16.86)" fill="#969696" opacity="0.6"/><rect x="586.46" y="735.42" width="2.95" height="61.97" transform="translate(152.66 -144.95) rotate(16.86)" fill="#969696" opacity="0.6"/><rect x="641.02" y="607.87" width="2.95" height="61.97" transform="translate(118 -166.26) rotate(16.86)" fill="#969696" opacity="0.6"/><rect x="667.74" y="704.83" width="2.95" height="61.97" transform="translate(147.28 -169.84) rotate(16.86)" fill="#969696" opacity="0.6"/><rect x="748.15" y="716.68" width="2.95" height="61.97" transform="translate(154.17 -192.66) rotate(16.86)" fill="#969696" opacity="0.6"/><rect x="847.27" y="659.81" width="2.95" height="61.97" transform="translate(141.94 -223.85) rotate(16.86)" fill="#969696" opacity="0.6"/><rect x="827" y="770.2" width="2.95" height="61.97" transform="translate(173.08 -213.22) rotate(16.86)" fill="#969696" opacity="0.6"/><rect x="865.13" y="816.21" width="2.95" height="61.97" transform="translate(188.07 -222.31) rotate(16.86)" fill="#969696" opacity="0.6"/><rect x="936.18" y="744.7" width="2.95" height="61.97" transform="translate(170.38 -245.99) rotate(16.86)" fill="#969696" opacity="0.6"/><rect x="990.73" y="617.15" width="2.95" height="61.97" transform="translate(135.73 -267.3) rotate(16.86)" fill="#969696" opacity="0.6"/><rect x="1017.46" y="714.11" width="2.95" height="61.97" transform="translate(165 -270.88) rotate(16.86)" fill="#969696" opacity="0.6"/><rect x="1097.87" y="725.97" width="2.95" height="61.97" transform="translate(171.9 -293.69) rotate(16.86)" fill="#969696" opacity="0.6"/><rect x="692.84" y="469.95" width="2.95" height="61.97" transform="translate(80.23 -187.22) rotate(16.86)" fill="#969696" opacity="0.6"/><rect x="1217.09" y="620.95" width="2.95" height="61.97" transform="translate(146.56 -332.79) rotate(16.86)" fill="#969696" opacity="0.6"/><rect x="1196.81" y="731.33" width="2.95" height="61.97" transform="translate(177.71 -322.16) rotate(16.86)" fill="#969696" opacity="0.6"/><rect x="1234.95" y="777.34" width="2.95" height="61.97" transform="translate(192.7 -331.25) rotate(16.86)" fill="#969696" opacity="0.6"/><rect x="1305.99" y="705.83" width="2.95" height="61.97" transform="translate(175.01 -354.93) rotate(16.86)" fill="#969696" opacity="0.6"/><rect x="1360.55" y="578.28" width="2.95" height="61.97" transform="translate(140.36 -376.24) rotate(16.86)" fill="#969696" opacity="0.6"/><rect x="1387.27" y="675.24" width="2.95" height="61.97" transform="translate(169.63 -379.82) rotate(16.86)" fill="#969696" opacity="0.6"/><rect x="1467.68" y="687.1" width="2.95" height="61.97" transform="translate(176.52 -402.63) rotate(16.86)" fill="#969696" opacity="0.6"/><rect x="124.12" y="704.05" width="2.95" height="61.97" transform="translate(123.68 -12.19) rotate(16.86)" fill="#969696" opacity="0.6"/><rect x="103.85" y="814.43" width="2.95" height="61.97" transform="translate(154.83 -1.57) rotate(16.86)" fill="#969696" opacity="0.6"/><rect x="141.98" y="860.44" width="2.95" height="61.97" transform="translate(169.81 -10.65) rotate(16.86)" fill="#969696" opacity="0.6"/><rect x="213.03" y="788.93" width="2.95" height="61.97" transform="translate(152.12 -34.33) rotate(16.86)" fill="#969696" opacity="0.6"/><rect x="267.58" y="661.38" width="2.95" height="61.97" transform="translate(117.47 -55.64) rotate(16.86)" fill="#969696" opacity="0.6"/><rect x="294.31" y="758.34" width="2.95" height="61.97" transform="translate(146.75 -59.22) rotate(16.86)" fill="#969696" opacity="0.6"/><rect x="374.72" y="770.2" width="2.95" height="61.97" transform="translate(153.64 -82.04) rotate(16.86)" fill="#969696" opacity="0.6"/><rect x="1537.97" y="713.57" width="2.95" height="61.97" transform="translate(187.22 -421.88) rotate(16.86)" fill="#969696" opacity="0.6"/><rect x="1517.69" y="823.95" width="2.95" height="61.97" transform="translate(218.37 -411.25) rotate(16.86)" fill="#969696" opacity="0.6"/><rect x="1555.83" y="869.97" width="2.95" height="61.97" transform="translate(233.36 -420.34) rotate(16.86)" fill="#969696" opacity="0.6"/><rect x="1626.88" y="798.46" width="2.95" height="61.97" transform="translate(215.67 -444.02) rotate(16.86)" fill="#969696" opacity="0.6"/><rect x="1681.43" y="670.91" width="2.95" height="61.97" transform="translate(181.02 -465.33) rotate(16.86)" fill="#969696" opacity="0.6"/><rect x="1708.15" y="767.87" width="2.95" height="61.97" transform="translate(210.29 -468.91) rotate(16.86)" fill="#969696" opacity="0.6"/><rect x="1788.56" y="779.72" width="2.95" height="61.97" transform="translate(217.18 -491.72) rotate(16.86)" fill="#969696" opacity="0.6"/><rect x="1536.87" y="511.15" width="2.95" height="61.97" transform="translate(128.47 -430.26) rotate(16.86)" fill="#969696" opacity="0.6"/><rect x="1575.01" y="557.17" width="2.95" height="61.97" transform="translate(143.45 -439.35) rotate(16.86)" fill="#969696" opacity="0.6"/><rect x="1646.05" y="485.66" width="2.95" height="61.97" transform="translate(125.76 -463.03) rotate(16.86)" fill="#969696" opacity="0.6"/><rect x="1727.33" y="455.07" width="2.95" height="61.97" transform="translate(120.39 -487.92) rotate(16.86)" fill="#969696" opacity="0.6"/><rect x="1807.74" y="466.92" width="2.95" height="61.97" transform="translate(127.28 -510.73) rotate(16.86)" fill="#969696" opacity="0.6"/></g></svg>