<?xml-stylesheet type="text/css" href="svg.css" ?>
<svg id="red_dialogue" xmlns="http://www.w3.org/2000/svg" viewBox="0 0 391.62 214.24"><rect x="5" y="5" width="381.62" height="204.24" rx="28.96" fill="#13241a" stroke="#366056" stroke-miterlimit="10" stroke-width="10"/><g id="red1"><path d="M212.41,692.78v-21h2.8v21Z" transform="translate(-169.35 -620.2)" fill="#e6c873"/><path d="M234.22,692.78V687.6h-2.35v5.18H229V687.6h-2.59v-5.18h-2.59V677h2.83v5.18h2.59v5.18h2.35v-5.18h2.83v5.18h2.35v-5.18h2.59V677h2.83v5.43h-2.59v5.18h-2.59v5.18Z" transform="translate(-169.35 -620.2)" fill="#e6c873"/><path d="M244.82,674.65v-2.84h2.84v2.84Zm0,18.13V677h2.84v15.79Z" transform="translate(-169.35 -620.2)" fill="#e6c873"/><path d="M250.56,692.78v-21h2.8v21Z" transform="translate(-169.35 -620.2)" fill="#e6c873"/><path d="M256.16,692.78v-21H259v21Z" transform="translate(-169.35 -620.2)" fill="#e6c873"/><path d="M275.94,692.78V679.83H271v12.95h-2.8V677h8v2.59h2.59v13.2Z" transform="translate(-169.35 -620.2)" fill="#e6c873"/><path d="M284.09,692.78v-2.59H281.5V679.58h2.59V677h5.39v2.59h2.59V685H284.3v4.93h4.94v-2.59h2.83v2.84h-2.59v2.59Zm5.15-12.95H284.3v2.34h4.94Z" transform="translate(-169.35 -620.2)" fill="#e6c873"/><path d="M299.46,692.78V687.6h-2.59v-5.18h-2.59V677h2.83v5.18h2.59v5.18h2.35v-5.18h2.59V677h2.83v5.43h-2.59v5.18h-2.59v5.18Z" transform="translate(-169.35 -620.2)" fill="#e6c873"/><path d="M312.51,692.78v-2.59h-2.59V679.58h2.59V677h5.39v2.59h2.59V685h-7.77v4.93h4.93v-2.59h2.84v2.84H317.9v2.59Zm5.14-12.95h-4.93v2.34h4.93Z" transform="translate(-169.35 -620.2)" fill="#e6c873"/><path d="M323.29,692.78V677h2.8v2.59h2.34V677h2.84v2.84h-2.59v2.59h-2.59v10.36Z" transform="translate(-169.35 -620.2)" fill="#e6c873"/><path d="M342.36,692.78v-2.59h-2.59V677h2.84v13h4.93V677h2.84v15.79Z" transform="translate(-169.35 -620.2)" fill="#e6c873"/><path d="M360.91,692.78V679.83H356v12.95h-2.8V677h8v2.59h2.59v13.2Z" transform="translate(-169.35 -620.2)" fill="#e6c873"/><path d="M368.89,692.78v-2.59H366.3V679.58h2.59V677h5.18v-5.18h2.84v21Zm5.18-12.95h-4.93v10.11h4.93Z" transform="translate(-169.35 -620.2)" fill="#e6c873"/><path d="M382.3,692.78v-2.59h-2.59V679.58h2.59V677h5.39v2.59h2.59V685h-7.77v4.93h4.93v-2.59h2.84v2.84h-2.59v2.59Zm5.14-12.95h-4.93v2.34h4.93Z" transform="translate(-169.35 -620.2)" fill="#e6c873"/><path d="M393.08,692.78V677h2.8v2.59h2.34V677h2.84v2.84h-2.59v2.59h-2.59v10.36Z" transform="translate(-169.35 -620.2)" fill="#e6c873"/><path d="M403.19,692.78v-2.84H411V685h-5.18v-2.59h-2.59v-2.84h2.59V677h5.43v2.84H406v2.34h5.18v2.59h2.59v5.43h-2.59v2.59Z" transform="translate(-169.35 -620.2)" fill="#e6c873"/><path d="M420.9,692.78v-2.59h-2.59V679.83h-2.59V677h2.59v-5.18h2.84V677h2.59v2.84h-2.59v10.11h2.59v2.84Z" transform="translate(-169.35 -620.2)" fill="#e6c873"/><path d="M436.37,692.78v-2.59H434v2.59H428.6v-2.59H426v-5.43h2.59v-2.59h5.18v-2.34H428.6V677H434v2.59h2.59v10.36h2.59v2.84ZM433.78,685h-4.93v4.93h4.93Z" transform="translate(-169.35 -620.2)" fill="#e6c873"/><path d="M449.46,692.78V679.83h-4.93v12.95h-2.8V677h8v2.59h2.59v13.2Z" transform="translate(-169.35 -620.2)" fill="#e6c873"/><path d="M457.44,692.78v-2.59h-2.59V679.58h2.59V677h5.18v-5.18h2.84v21Zm5.18-12.95h-4.93v10.11h4.93Z" transform="translate(-169.35 -620.2)" fill="#e6c873"/><path d="M479.28,692.78v-2.59h-2.59V679.83H474.1V677h2.59v-5.18h2.84V677h2.59v2.84h-2.59v10.11h2.59v2.84Z" transform="translate(-169.35 -620.2)" fill="#e6c873"/><path d="M492.37,692.78V679.83h-4.93v12.95h-2.8v-21h2.8V677h5.18v2.59h2.59v13.2Z" transform="translate(-169.35 -620.2)" fill="#e6c873"/><path d="M498.15,674.65v-2.84H501v2.84Zm0,18.13V677H501v15.79Z" transform="translate(-169.35 -620.2)" fill="#e6c873"/><path d="M503.78,692.78v-2.84h7.77V685h-5.18v-2.59h-2.59v-2.84h2.59V677h5.42v2.84h-5.18v2.34h5.18v2.59h2.59v5.43h-2.59v2.59Z" transform="translate(-169.35 -620.2)" fill="#e6c873"/><path d="M516.9,692.78v-2.84h2.81v2.84Z" transform="translate(-169.35 -620.2)" fill="#e6c873"/><path d="M222.74,734.78V729.6h-2.35v5.18h-2.83V729.6H215v-7.77h-2.59v-8h2.8v7.77h2.59v7.77h2.35V713.81H223v15.54h2.35v-7.77h2.59v-7.77h2.83v8h-2.59v7.77h-2.59v5.18Z" transform="translate(-169.35 -620.2)" fill="#e6c873"/><path d="M241.29,734.78V721.83h-4.94v12.95h-2.8v-21h2.8V719h5.18v2.59h2.59v13.2Z" transform="translate(-169.35 -620.2)" fill="#e6c873"/><path d="M249.27,742.55V740h-2.59v-2.84h2.83v2.59h4.94v-4.93h-5.18v-2.59h-2.59V719h2.83v13h4.94V719h2.83v21h-2.59v2.59Z" transform="translate(-169.35 -620.2)" fill="#e6c873"/><path d="M276.29,734.78V729.6h-2.35v5.18h-2.83V729.6h-2.59v-5.18h-2.59V719h2.83v5.18h2.59v5.18h2.35v-5.18h2.83v5.18h2.35v-5.18h2.59V719h2.83v5.43h-2.59v5.18h-2.59v5.18Z" transform="translate(-169.35 -620.2)" fill="#e6c873"/><path d="M289.1,734.78v-2.59h-2.59V721.58h2.59V719h5.42v2.59h2.59v10.61h-2.59v2.59Zm5.18-12.95h-4.94v10.11h4.94Z" transform="translate(-169.35 -620.2)" fill="#e6c873"/><path d="M302.15,734.78v-2.59h-2.59V719h2.84v13h4.93V719h2.84v15.79Z" transform="translate(-169.35 -620.2)" fill="#e6c873"/><path d="M313,734.78v-21h2.8v21Z" transform="translate(-169.35 -620.2)" fill="#e6c873"/><path d="M321,734.78v-2.59h-2.59V721.58H321V719h5.18v-5.18H329v21Zm5.18-12.95h-4.93v10.11h4.93Z" transform="translate(-169.35 -620.2)" fill="#e6c873"/><path d="M340.65,742.55V740h-2.59v-2.84h2.83v2.59h4.94v-4.93h-5.18v-2.59h-2.59V719h2.83v13h4.94V719h2.83v21h-2.59v2.59Z" transform="translate(-169.35 -620.2)" fill="#e6c873"/><path d="M353.88,734.78v-2.59h-2.59V721.58h2.59V719h5.42v2.59h2.59v10.61H359.3v2.59Zm5.18-12.95h-4.94v10.11h4.94Z" transform="translate(-169.35 -620.2)" fill="#e6c873"/><path d="M366.93,734.78v-2.59h-2.59V719h2.84v13h4.93V719H375v15.79Z" transform="translate(-169.35 -620.2)" fill="#e6c873"/><path d="M386.78,734.78v-2.59h-2.59V721.58h2.59V719h5.39v2.59h2.59v2.84h-2.84v-2.59H387v10.11h4.93v-2.59h2.84v2.84h-2.59v2.59Z" transform="translate(-169.35 -620.2)" fill="#e6c873"/><path d="M405.05,734.78V721.83h-4.94v12.95h-2.8v-21h2.8V719h5.18v2.59h2.59v13.2Z" transform="translate(-169.35 -620.2)" fill="#e6c873"/><path d="M413,734.78v-2.59h-2.59V721.58H413V719h5.42v2.59H421v10.61h-2.59v2.59Zm5.18-12.95h-4.94v10.11h4.94Z" transform="translate(-169.35 -620.2)" fill="#e6c873"/><path d="M426.08,734.78v-2.59h-2.59V721.58h2.59V719h5.43v2.59h2.59v10.61h-2.59v2.59Zm5.18-12.95h-4.93v10.11h4.93Z" transform="translate(-169.35 -620.2)" fill="#e6c873"/><path d="M436.62,734.78v-2.84h7.77V727h-5.18v-2.59h-2.59v-2.84h2.59V719h5.42v2.84h-5.18v2.34h5.18v2.59h2.59v5.43h-2.59v2.59Z" transform="translate(-169.35 -620.2)" fill="#e6c873"/><path d="M452.33,734.78v-2.59h-2.59V721.58h2.59V719h5.39v2.59h2.59V727h-7.77v4.93h4.94v-2.59h2.83v2.84h-2.59v2.59Zm5.15-12.95h-4.94v2.34h4.94Z" transform="translate(-169.35 -620.2)" fill="#e6c873"/><path d="M474.14,734.78v-2.59h-2.59V721.83H469V719h2.59v-5.18h2.83V719H477v2.84h-2.59v10.11H477v2.84Z" transform="translate(-169.35 -620.2)" fill="#e6c873"/><path d="M481.91,734.78v-2.59h-2.59V721.58h2.59V719h5.42v2.59h2.59v10.61h-2.59v2.59Zm5.18-12.95h-4.94v10.11h4.94Z" transform="translate(-169.35 -620.2)" fill="#e6c873"/><path d="M220.39,774.19v2.59h-8v-21h2.8V761h5.18v2.59H223v10.61Zm-.24-10.36h-4.94v10.11h4.94Z" transform="translate(-169.35 -620.2)" fill="#e6c873"/><path d="M228.23,776.78v-2.59h-2.59V763.58h2.59V761h5.39v2.59h2.59V769h-7.77v4.93h4.94v-2.59h2.83v2.84h-2.59v2.59Zm5.15-12.95h-4.94v2.34h4.94Z" transform="translate(-169.35 -620.2)" fill="#e6c873"/><path d="M243.6,776.78v-2.59H241V763.83h-2.59V761H241v-5.18h2.83V761h2.59v2.84h-2.59v10.11h2.59v2.84Z" transform="translate(-169.35 -620.2)" fill="#e6c873"/><path d="M249,776.78V761h2.8v2.59h2.35V761h2.83v2.84h-2.59v2.59h-2.59v10.36Z" transform="translate(-169.35 -620.2)" fill="#e6c873"/><path d="M269.29,776.78v-2.59h-2.38v2.59h-5.39v-2.59h-2.59v-5.43h2.59v-2.59h5.18v-2.34h-5.18V761h5.39v2.59h2.59v10.36h2.59v2.84ZM266.7,769h-4.94v4.93h4.94Z" transform="translate(-169.35 -620.2)" fill="#e6c873"/><path d="M277.06,784.55V782h-2.59v-2.84h2.83v2.59h4.94v-4.93h-5.18v-2.59h-2.59V761h2.83v13h4.94V761h2.83v21h-2.59v2.59Z" transform="translate(-169.35 -620.2)" fill="#e6c873"/><path d="M296.73,776.78v-2.59h-2.59V761H297v13h4.94V761h2.83v15.79Z" transform="translate(-169.35 -620.2)" fill="#e6c873"/><path d="M307.44,776.78v-2.84h7.77V769H310v-2.59h-2.59v-2.84H310V761h5.42v2.84h-5.18v2.34h5.18v2.59H318v5.43h-2.59v2.59Z" transform="translate(-169.35 -620.2)" fill="#e6c873"/><path d="M337.12,776.78v-2.59h-2.39v2.59h-5.38v-2.59h-2.6v-5.43h2.6v-2.59h5.17v-2.34h-5.17V761h5.38v2.59h2.6v10.36h2.59v2.84Zm-2.6-7.77h-4.93v4.93h4.93Z" transform="translate(-169.35 -620.2)" fill="#e6c873"/><path d="M350.2,776.78V763.83h-4.93v12.95h-2.8V761h8v2.59H353v13.2Z" transform="translate(-169.35 -620.2)" fill="#e6c873"/><path d="M358.18,776.78v-2.59h-2.59V763.58h2.59V761h5.18v-5.18h2.84v21Zm5.18-12.95h-4.93v10.11h4.93Z" transform="translate(-169.35 -620.2)" fill="#e6c873"/><path d="M374.46,784.55v-2.84h2.59V761h2.83v21h-2.59v2.59Zm2.59-25.9v-2.84h2.83v2.84Z" transform="translate(-169.35 -620.2)" fill="#e6c873"/><path d="M385.06,776.78v-2.59h-2.59V763.58h2.59V761h5.43v2.59h2.59v10.61h-2.59v2.59Zm5.18-12.95h-4.93v10.11h4.93Z" transform="translate(-169.35 -620.2)" fill="#e6c873"/><path d="M395.91,758.65v-2.84h2.84v2.84Zm0,18.13V761h2.84v15.79Z" transform="translate(-169.35 -620.2)" fill="#e6c873"/><path d="M409.39,776.78V763.83h-4.94v12.95h-2.8V761h8v2.59h2.59v13.2Z" transform="translate(-169.35 -620.2)" fill="#e6c873"/><path d="M429.13,776.78V763.83h-4.94v12.95h-2.8v-21h2.8V761h5.18v2.59H432v13.2Z" transform="translate(-169.35 -620.2)" fill="#e6c873"/><path d="M434.9,758.65v-2.84h2.84v2.84Zm0,18.13V761h2.84v15.79Z" transform="translate(-169.35 -620.2)" fill="#e6c873"/><path d="M456.15,776.78V763.83h-4.94v12.95h-2.83V763.83h-4.94v12.95h-2.8V761h8v2.59H451V761h5.42v2.59H459v13.2Z" transform="translate(-169.35 -620.2)" fill="#e6c873"/><path d="M464.3,771.6v-5.43h2.56v-2.59h2.59v-4.93h-4.94v5.18h-2.8V758.4h2.59v-2.59h5.39v2.59h2.59v5.43h-2.59v2.59H467.1v5.18Zm0,5.18v-2.84h2.8v2.84Z" transform="translate(-169.35 -620.2)" fill="#e6c873"/></g></svg>