<?xml-stylesheet type="text/css" href="svg.css" ?>
<svg id="red_dialogue" xmlns="http://www.w3.org/2000/svg" viewBox="0 0 391.62 214.24"><rect x="5" y="5" width="381.62" height="204.24" rx="28.96" fill="#13241a" stroke="#366056" stroke-miterlimit="10" stroke-width="10"/><g id="red2"><path d="M222.74,676.67v-2.59h-2.59V668.9h-2.59v-5.18h-2.35v12.95h-2.8v-21h2.8v5.17h2.35v-2.59h2.59v-2.58H223v2.83h-2.59v2.59H217.8v2.34h2.59v5.19H223v5.17h2.59v2.84Z" transform="translate(-169.35 -620.2)" fill="#e6c873"/><path d="M228,658.54v-2.83h2.84v2.83Zm0,18.13V660.88h2.84v15.79Z" transform="translate(-169.35 -620.2)" fill="#e6c873"/><path d="M233.69,676.67v-21h2.8v21Z" transform="translate(-169.35 -620.2)" fill="#e6c873"/><path d="M239.29,676.67v-21h2.8v21Z" transform="translate(-169.35 -620.2)" fill="#e6c873"/><path d="M245.1,658.54v-2.83h2.84v2.83Zm0,18.13V660.88h2.84v15.79Z" transform="translate(-169.35 -620.2)" fill="#e6c873"/><path d="M258.58,676.67V663.72h-4.94v12.95h-2.8V660.88h8v2.59h2.59v13.2Z" transform="translate(-169.35 -620.2)" fill="#e6c873"/><path d="M266.56,684.44v-2.59H264V679h2.83v2.59h4.94v-4.93h-5.18v-2.59H264V663.47h2.59v-2.59h8v21H272v2.59Zm5.18-20.72H266.8v10.11h4.94Z" transform="translate(-169.35 -620.2)" fill="#e6c873"/><path d="M294.14,676.67v-2.59h-2.35v2.59H286.4v-2.59h-2.59V658.29h2.59v-2.58h8v2.58H297v2.84h-2.83v-2.59h-7.53v15.29h4.94v-2.58h2.59v-4.94H289v-2.84h8v13.2Z" transform="translate(-169.35 -620.2)" fill="#e6c873"/><path d="M310.1,676.67v-5.18h-2.59v-5.18h-4.94v10.36h-2.8v-21h10.57v2.58h2.59v5.43h-2.59v7.53h2.59v5.42Zm0-18.13h-7.53v4.93h7.53Z" transform="translate(-169.35 -620.2)" fill="#e6c873"/><path d="M315.73,676.67v-21H326.3v2.83h-7.77v4.93h7.77v2.84h-7.77v7.52h7.77v2.84Z" transform="translate(-169.35 -620.2)" fill="#e6c873"/><path d="M328.93,676.67v-21H339.5v2.83h-7.77v4.93h7.77v2.84h-7.77v7.52h7.77v2.84Z" transform="translate(-169.35 -620.2)" fill="#e6c873"/><path d="M352.45,676.67v-2.59h-2.6V668.9h-2.58v-5.18h-2.35v12.95h-2.8v-21h2.8v2.58h2.59v5.18h2.59v5.19h2.35V655.71h2.83v21Z" transform="translate(-169.35 -620.2)" fill="#e6c873"/><path d="M374.28,676.67v-5.18h-2.34v5.18H369.1v-5.18h-2.59v-5.18h-2.59v-5.43h2.84v5.18h2.59v5.19h2.34v-5.19h2.84v5.19h2.34v-5.19h2.59v-5.18h2.84v5.43h-2.59v5.18h-2.59v5.18Z" transform="translate(-169.35 -620.2)" fill="#e6c873"/><path d="M387.09,676.67v-2.59H384.5V663.47h2.59v-2.59h5.43v2.59h2.59v10.61h-2.59v2.59Zm5.18-12.95h-4.93v10.11h4.93Z" transform="translate(-169.35 -620.2)" fill="#e6c873"/><path d="M405.47,676.67V663.72h-4.94v12.95h-2.8V660.88h8v2.59h2.59v13.2Z" transform="translate(-169.35 -620.2)" fill="#e6c873"/><path d="M410.72,661.13v-2.84h2.59v-5.17h2.83v5.42h-2.59v2.59Z" transform="translate(-169.35 -620.2)" fill="#e6c873"/><path d="M423.18,676.67v-2.59h-2.59V663.72H418v-2.84h2.59v-5.17h2.83v5.17H426v2.84h-2.59v10.11H426v2.84Z" transform="translate(-169.35 -620.2)" fill="#e6c873"/><path d="M220.39,716.08v2.59h-8v-21h2.8v5.17h5.18v2.59H223v10.61Zm-.24-10.36h-4.94v10.11h4.94Z" transform="translate(-169.35 -620.2)" fill="#e6c873"/><path d="M225.64,718.67V702.88h2.8v2.59h2.35v-2.59h2.83v2.84H231v2.59h-2.59v10.36Z" transform="translate(-169.35 -620.2)" fill="#e6c873"/><path d="M236.07,700.54v-2.83h2.84v2.83Zm0,18.13V702.88h2.84v15.79Z" transform="translate(-169.35 -620.2)" fill="#e6c873"/><path d="M249.55,718.67V705.72h-4.94v12.95h-2.8V702.88h8v2.59h2.59v13.2Z" transform="translate(-169.35 -620.2)" fill="#e6c873"/><path d="M257.53,726.44v-2.59h-2.59V721h2.83v2.59h4.94v-4.93h-5.18v-2.59h-2.59V705.47h2.59v-2.59h8v21H263v2.59Zm5.18-20.72h-4.94v10.11h4.94Z" transform="translate(-169.35 -620.2)" fill="#e6c873"/><path d="M277.2,726.44v-2.59h-2.59V721h2.83v2.59h4.94v-4.93H277.2v-2.59h-2.59v-13.2h2.83v13h4.94v-13h2.83v21h-2.59v2.59Z" transform="translate(-169.35 -620.2)" fill="#e6c873"/><path d="M290.43,718.67v-2.59h-2.59V705.47h2.59v-2.59h5.42v2.59h2.59v10.61h-2.59v2.59Zm5.18-12.95h-4.94v10.11h4.94Z" transform="translate(-169.35 -620.2)" fill="#e6c873"/><path d="M303.48,718.67v-2.59h-2.59v-13.2h2.84v13h4.93v-13h2.84v15.79Z" transform="translate(-169.35 -620.2)" fill="#e6c873"/><path d="M314.29,718.67V702.88h2.81v2.59h2.34v-2.59h2.83v2.84h-2.58v2.59H317.1v10.36Z" transform="translate(-169.35 -620.2)" fill="#e6c873"/><path d="M331,726.44V702.88h8v2.59h2.59v10.61h-2.59v2.59h-5.18v7.77Zm7.74-20.72h-4.94v10.11h4.94Z" transform="translate(-169.35 -620.2)" fill="#e6c873"/><path d="M346.67,718.67v-2.59h-2.59V705.47h2.59v-2.59h5.39v2.59h2.59v5.43h-7.77v4.93h4.93v-2.58h2.84v2.83h-2.59v2.59Zm5.14-12.95h-4.93v2.34h4.93Z" transform="translate(-169.35 -620.2)" fill="#e6c873"/><path d="M359.86,718.67v-2.59h-2.59V705.47h2.59v-2.59h5.43v2.59h2.59v10.61h-2.59v2.59ZM365,705.72h-4.93v10.11H365Z" transform="translate(-169.35 -620.2)" fill="#e6c873"/><path d="M370.5,726.44V702.88h8v2.59h2.59v10.61h-2.59v2.59H373.3v7.77Zm7.74-20.72H373.3v10.11h4.94Z" transform="translate(-169.35 -620.2)" fill="#e6c873"/><path d="M383.63,718.67v-21h2.8v21Z" transform="translate(-169.35 -620.2)" fill="#e6c873"/><path d="M391.82,718.67v-2.59h-2.59V705.47h2.59v-2.59h5.39v2.59h2.59v5.43H392v4.93H397v-2.58h2.84v2.83h-2.59v2.59ZM397,705.72H392v2.34H397Z" transform="translate(-169.35 -620.2)" fill="#e6c873"/><path d="M417,716.08v2.59h-8v-21h2.8v5.17H417v2.59h2.59v10.61Zm-.25-10.36h-4.93v10.11h4.93Z" transform="translate(-169.35 -620.2)" fill="#e6c873"/><path d="M432.38,718.67v-2.59H430v2.59h-5.39v-2.59H422v-5.42h2.59v-2.6h5.18v-2.34h-5.18v-2.84H430v2.59h2.59v10.36h2.59v2.84Zm-2.59-7.77h-4.93v4.93h4.93Z" transform="translate(-169.35 -620.2)" fill="#e6c873"/><path d="M440.33,718.67v-2.59h-2.59V705.47h2.59v-2.59h5.39v2.59h2.59v2.84h-2.84v-2.59h-4.93v10.11h4.93v-2.58h2.84v2.83h-2.59v2.59Z" transform="translate(-169.35 -620.2)" fill="#e6c873"/><path d="M458.6,718.67v-2.59H456v-2.59h-2.35V719h-2.8V697.71h2.8v10.35H456v-2.59h2.59v-2.59h2.83v2.84h-2.59v2.59h-2.59v4.94h2.59v2.58h2.59v2.84Z" transform="translate(-169.35 -620.2)" fill="#e6c873"/><path d="M464,718.67v-2.84h2.8v2.84Z" transform="translate(-169.35 -620.2)" fill="#e6c873"/><path d="M222.74,760.67v-5.18h-2.35v5.18h-2.83v-5.18H215v-7.77h-2.59v-8h2.8v7.76h2.59v7.78h2.35V739.71H223v15.54h2.35v-7.78h2.59v-7.76h2.83v8h-2.59v7.77h-2.59v5.18Z" transform="translate(-169.35 -620.2)" fill="#e6c873"/><path d="M241.29,760.67V747.72h-4.94v12.95h-2.8v-21h2.8v5.17h5.18v2.59h2.59v13.2Z" transform="translate(-169.35 -620.2)" fill="#e6c873"/><path d="M249.27,768.44v-2.59h-2.59V763h2.83v2.59h4.94v-4.93h-5.18v-2.59h-2.59v-13.2h2.83v13h4.94v-13h2.83v21h-2.59v2.59Z" transform="translate(-169.35 -620.2)" fill="#e6c873"/><path d="M269.11,760.67v-2.59h-2.59V747.47h2.59v-2.59h5.39v2.59h2.59v2.84h-2.83v-2.59h-4.94v10.11h4.94v-2.58h2.83v2.83H274.5v2.59Z" transform="translate(-169.35 -620.2)" fill="#e6c873"/><path d="M289.76,760.67v-2.59h-2.38v2.59H282v-2.59H279.4v-5.42H282v-2.6h5.18v-2.34H282v-2.84h5.39v2.59H290v10.36h2.59v2.84Zm-2.59-7.77h-4.93v4.93h4.93Z" transform="translate(-169.35 -620.2)" fill="#e6c873"/><path d="M302.85,760.67V747.72h-4.93v12.95h-2.8V744.88h8v2.59h2.59v13.2Z" transform="translate(-169.35 -620.2)" fill="#e6c873"/><path d="M308.1,745.13v-2.84h2.59v-5.17h2.84v5.42h-2.59v2.59Z" transform="translate(-169.35 -620.2)" fill="#e6c873"/><path d="M320.56,760.67v-2.59H318V747.72h-2.59v-2.84H318v-5.17h2.84v5.17h2.59v2.84h-2.59v10.11h2.59v2.84Z" transform="translate(-169.35 -620.2)" fill="#e6c873"/><path d="M334.77,768.44v-2.59h-2.59V763H335v2.59H340v-4.93h-5.18v-2.59h-2.59v-13.2H335v13H340v-13h2.84v21H340.2v2.59Z" transform="translate(-169.35 -620.2)" fill="#e6c873"/><path d="M348,760.67v-2.59h-2.59V747.47H348v-2.59h5.43v2.59H356v10.61h-2.59v2.59Zm5.18-12.95h-4.93v10.11h4.93Z" transform="translate(-169.35 -620.2)" fill="#e6c873"/><path d="M361.05,760.67v-2.59h-2.59v-13.2h2.84v13h4.93v-13h2.84v15.79Z" transform="translate(-169.35 -620.2)" fill="#e6c873"/><path d="M377.33,768.44V765.6h2.59V744.88h2.83v21h-2.59v2.59Zm2.59-25.9v-2.83h2.83v2.83Z" transform="translate(-169.35 -620.2)" fill="#e6c873"/><path d="M387.93,760.67v-2.59h-2.59v-13.2h2.84v13h4.93v-13H396v15.79Z" transform="translate(-169.35 -620.2)" fill="#e6c873"/><path d="M398.64,760.67v-2.84h7.77V752.9h-5.18v-2.59h-2.59v-2.84h2.59v-2.59h5.43v2.84h-5.18v2.34h5.18v2.6h2.59v5.42h-2.59v2.59Z" transform="translate(-169.35 -620.2)" fill="#e6c873"/><path d="M416.35,760.67v-2.59h-2.59V747.72h-2.59v-2.84h2.59v-5.17h2.84v5.17h2.59v2.84H416.6v10.11h2.59v2.84Z" transform="translate(-169.35 -620.2)" fill="#e6c873"/><path d="M428.15,760.67v-21H431v21Z" transform="translate(-169.35 -620.2)" fill="#e6c873"/><path d="M436.34,760.67v-2.59h-2.59V747.47h2.59v-2.59h5.39v2.59h2.59v5.43h-7.77v4.93h4.93v-2.58h2.84v2.83h-2.59v2.59Zm5.14-12.95h-4.93v2.34h4.93Z" transform="translate(-169.35 -620.2)" fill="#e6c873"/><path d="M457.23,760.67v-2.59h-2.38v2.59h-5.39v-2.59h-2.59v-5.42h2.59v-2.6h5.18v-2.34h-5.18v-2.84h5.39v2.59h2.59v10.36H460v2.84Zm-2.59-7.77h-4.93v4.93h4.93Z" transform="translate(-169.35 -620.2)" fill="#e6c873"/><path d="M462.59,760.67V744.88h2.8v2.59h2.34v-2.59h2.84v2.84H468v2.59h-2.59v10.36Z" transform="translate(-169.35 -620.2)" fill="#e6c873"/><path d="M480.54,760.67V747.72h-4.93v12.95h-2.8V744.88h8v2.59h2.59v13.2Z" transform="translate(-169.35 -620.2)" fill="#e6c873"/><path d="M217,802.67v-2.59h-2.59V789.72h-2.59v-2.84h2.59v-5.17h2.83v5.17h2.59v2.84h-2.59v10.11h2.59v2.84Z" transform="translate(-169.35 -620.2)" fill="#e6c873"/><path d="M224.77,802.67v-2.59h-2.59V789.47h2.59v-2.59h5.42v2.59h2.59v10.61h-2.59v2.59ZM230,789.72H225v10.11H230Z" transform="translate(-169.35 -620.2)" fill="#e6c873"/><path d="M241.85,802.67v-21h2.8v21Z" transform="translate(-169.35 -620.2)" fill="#e6c873"/><path d="M250,802.67v-2.59h-2.59V789.47H250v-2.59h5.39v2.59H258v5.43h-7.77v4.93h4.93v-2.58H258v2.83h-2.59v2.59Zm5.14-12.95h-4.93v2.34h4.93Z" transform="translate(-169.35 -620.2)" fill="#e6c873"/><path d="M265.4,802.67v-2.59h-2.59V789.72h-2.59v-2.84h2.59v-5.17h2.84v5.17h2.59v2.84h-2.59v10.11h2.59v2.84Z" transform="translate(-169.35 -620.2)" fill="#e6c873"/><path d="M277.41,784.54v-2.83h2.83v2.83Zm0,18.13V786.88h2.83v15.79Z" transform="translate(-169.35 -620.2)" fill="#e6c873"/><path d="M287.73,802.67v-2.59h-2.59V789.72h-2.59v-2.84h2.59v-5.17H288v5.17h2.59v2.84H288v10.11h2.59v2.84Z" transform="translate(-169.35 -620.2)" fill="#e6c873"/><path d="M301.94,810.44v-2.59h-2.59V805h2.84v2.59h4.93v-4.93h-5.18v-2.59h-2.59V789.47h2.59v-2.59h8v21h-2.59v2.59Zm5.18-20.72h-4.93v10.11h4.93Z" transform="translate(-169.35 -620.2)" fill="#e6c873"/><path d="M315.17,802.67v-2.59h-2.59V789.47h2.59v-2.59h5.43v2.59h2.59v10.61H320.6v2.59Zm5.18-12.95h-4.93v10.11h4.93Z" transform="translate(-169.35 -620.2)" fill="#e6c873"/><path d="M325.81,802.67v-2.84h2.8v2.84Z" transform="translate(-169.35 -620.2)" fill="#e6c873"/></g></svg>