<?xml-stylesheet type="text/css" href="svg.css" ?>
<svg id="red_dialogue" xmlns="http://www.w3.org/2000/svg" viewBox="0 0 391.62 214.24"><rect x="5" y="5" width="381.62" height="204.24" rx="28.96" fill="#13241a" stroke="#366056" stroke-miterlimit="10" stroke-width="10"/><g id="red3"><path d="M212.41,689.67v-21h2.8v21Z" transform="translate(-169.35 -620.2)" fill="#e6c873"/><path d="M220.6,689.67v-13H218v-2.83h2.59v-2.59h2.56V668.7H226v2.84H223.4v2.34H226v2.83H223.4v13Z" transform="translate(-169.35 -620.2)" fill="#e6c873"/><path d="M239.36,689.67v-2.59h-2.59V676.71h-2.59v-2.83h2.59V668.7h2.84v5.18h2.59v2.83h-2.59v10.12h2.59v2.84Z" transform="translate(-169.35 -620.2)" fill="#e6c873"/><path d="M252.45,689.67v-13h-4.93v13h-2.8v-21h2.8v5.18h5.18v2.59h2.59v13.2Z" transform="translate(-169.35 -620.2)" fill="#e6c873"/><path d="M268.13,689.67v-2.59h-2.38v2.59h-5.39v-2.59h-2.59v-5.43h2.59v-2.59h5.18v-2.35h-5.18v-2.83h5.39v2.59h2.59v10.36h2.59v2.84Zm-2.59-7.77h-4.93v4.93h4.93Z" transform="translate(-169.35 -620.2)" fill="#e6c873"/><path d="M278.07,689.67v-2.59h-2.59V676.71h-2.59v-2.83h2.59V668.7h2.84v5.18h2.59v2.83h-2.59v10.12h2.59v2.84Z" transform="translate(-169.35 -620.2)" fill="#e6c873"/><path d="M283.11,674.12v-2.83h2.59v-5.18h2.84v5.43H286v2.58Z" transform="translate(-169.35 -620.2)" fill="#e6c873"/><path d="M290.88,689.67v-2.84h7.77V681.9h-5.18v-2.6h-2.59v-2.83h2.59v-2.59h5.43v2.83h-5.18v2.35h5.18v2.59h2.59v5.43H298.9v2.59Z" transform="translate(-169.35 -620.2)" fill="#e6c873"/><path d="M315,689.67v-2.59h-2.59V676.71h-2.59v-2.83h2.59V668.7h2.84v5.18h2.59v2.83h-2.59v10.12h2.59v2.84Z" transform="translate(-169.35 -620.2)" fill="#e6c873"/><path d="M328.12,689.67v-13h-4.93v13h-2.8v-21h2.8v5.18h5.18v2.59H331v13.2Z" transform="translate(-169.35 -620.2)" fill="#e6c873"/><path d="M336.28,689.67v-2.59h-2.59V676.47h2.59v-2.59h5.39v2.59h2.59v5.43h-7.77v4.93h4.93v-2.59h2.84v2.84h-2.59v2.59Zm5.14-13h-4.93v2.35h4.93Z" transform="translate(-169.35 -620.2)" fill="#e6c873"/><path d="M356.08,689.67v-2.59h-2.59V676.47h2.59v-2.59h5.39v2.59h2.59v2.83h-2.83v-2.59h-4.94v10.12h4.94v-2.59h2.83v2.84h-2.59v2.59Z" transform="translate(-169.35 -620.2)" fill="#e6c873"/><path d="M376.73,689.67v-2.59h-2.38v2.59H369v-2.59h-2.59v-5.43H369v-2.59h5.18v-2.35H369v-2.83h5.39v2.59h2.59v10.36h2.59v2.84Zm-2.59-7.77h-4.93v4.93h4.93Z" transform="translate(-169.35 -620.2)" fill="#e6c873"/><path d="M382,689.67v-2.84h7.77V681.9h-5.18v-2.6H382v-2.83h2.59v-2.59H390v2.83h-5.18v2.35H390v2.59h2.59v5.43H390v2.59Z" transform="translate(-169.35 -620.2)" fill="#e6c873"/><path d="M397.7,689.67v-2.59h-2.59V676.47h2.59v-2.59h5.39v2.59h2.59v5.43h-7.77v4.93h4.93v-2.59h2.84v2.84h-2.59v2.59Zm5.14-13h-4.93v2.35h4.93Z" transform="translate(-169.35 -620.2)" fill="#e6c873"/><path d="M408.48,694.84V692h2.59v-5.18h2.8v5.42h-2.59v2.59Z" transform="translate(-169.35 -620.2)" fill="#e6c873"/><path d="M423.11,689.67v-21h2.8v21Z" transform="translate(-169.35 -620.2)" fill="#e6c873"/><path d="M444.91,689.67v-5.18h-2.34v5.18h-2.84v-5.18h-2.59V679.3h-2.59v-5.42h2.84v5.18H440v5.18h2.34v-5.18h2.84v5.18h2.34v-5.18h2.59v-5.18h2.84v5.42h-2.59v5.19h-2.59v5.18Z" transform="translate(-169.35 -620.2)" fill="#e6c873"/><path d="M455.52,671.54V668.7h2.83v2.84Zm0,18.13V673.88h2.83v15.79Z" transform="translate(-169.35 -620.2)" fill="#e6c873"/><path d="M461.26,689.67v-21h2.8v21Z" transform="translate(-169.35 -620.2)" fill="#e6c873"/><path d="M466.86,689.67v-21h2.8v21Z" transform="translate(-169.35 -620.2)" fill="#e6c873"/><path d="M212.31,731.67v-2.84h7.77V723.9H214.9v-2.6h-2.59v-2.83h2.59v-2.59h5.42v2.83h-5.18v2.35h5.18v2.59h2.59v5.43h-2.59v2.59Z" transform="translate(-169.35 -620.2)" fill="#e6c873"/><path d="M230,731.67v-2.59h-2.59V718.71h-2.59v-2.83h2.59V710.7h2.83v5.18h2.59v2.83h-2.59v10.12h2.59v2.84Z" transform="translate(-169.35 -620.2)" fill="#e6c873"/><path d="M237.79,731.67v-2.59H235.2V718.47h2.59v-2.59h5.42v2.59h2.59v10.61h-2.59v2.59Zm5.18-13H238v10.12H243Z" transform="translate(-169.35 -620.2)" fill="#e6c873"/><path d="M248.43,739.43V715.88h8v2.59H259v10.61h-2.59v2.59h-5.18v7.76Zm7.73-20.72h-4.93v10.12h4.93Z" transform="translate(-169.35 -620.2)" fill="#e6c873"/><path d="M270.41,739.43v-2.59h-2.59V734h2.83v2.59h4.94v-4.93h-5.18v-2.59h-2.59v-13.2h2.83v13h4.94v-13h2.83v21h-2.59v2.59Z" transform="translate(-169.35 -620.2)" fill="#e6c873"/><path d="M283.64,731.67v-2.59h-2.59V718.47h2.59v-2.59h5.42v2.59h2.59v10.61h-2.59v2.59Zm5.18-13h-4.94v10.12h4.94Z" transform="translate(-169.35 -620.2)" fill="#e6c873"/><path d="M296.69,731.67v-2.59H294.1v-13.2h2.84v13h4.93v-13h2.84v15.79Z" transform="translate(-169.35 -620.2)" fill="#e6c873"/><path d="M321.68,731.67v-13h-4.93v13H314v-21h2.8v5.18h5.18v2.59h2.59v13.2Z" transform="translate(-169.35 -620.2)" fill="#e6c873"/><path d="M329.84,731.67v-2.59h-2.59V718.47h2.59v-2.59h5.39v2.59h2.59v5.43h-7.77v4.93H335v-2.59h2.84v2.84h-2.59v2.59Zm5.14-13h-4.93v2.35H335Z" transform="translate(-169.35 -620.2)" fill="#e6c873"/><path d="M340.62,731.67V715.88h2.8v2.59h2.34v-2.59h2.84v2.83H346v2.59h-2.59v10.37Z" transform="translate(-169.35 -620.2)" fill="#e6c873"/><path d="M353.43,731.67v-2.59h-2.6V718.47h2.6v-2.59h5.38v2.59h2.6v5.43h-7.77v4.93h4.93v-2.59h2.84v2.84h-2.6v2.59Zm5.14-13h-4.93v2.35h4.93Z" transform="translate(-169.35 -620.2)" fill="#e6c873"/><path d="M378.38,731.67v-13h-4.94v13h-2.8V715.88h8v2.59h2.59v13.2Z" transform="translate(-169.35 -620.2)" fill="#e6c873"/><path d="M386.36,731.67v-2.59h-2.59V718.47h2.59v-2.59h5.42v2.59h2.59v10.61h-2.59v2.59Zm5.18-13H386.6v10.12h4.94Z" transform="translate(-169.35 -620.2)" fill="#e6c873"/><path d="M227.92,773.67v-13H223v13h-2.83v-13h-4.94v13h-2.8V757.88h8v2.59h2.35v-2.59h5.42v2.59h2.59v13.2Z" transform="translate(-169.35 -620.2)" fill="#e6c873"/><path d="M243.6,773.67v-2.59h-2.38v2.59h-5.39v-2.59h-2.59v-5.43h2.59v-2.59H241v-2.35h-5.18v-2.83h5.39v2.59h2.59v10.36h2.59v2.84ZM241,765.9h-4.94v4.93H241Z" transform="translate(-169.35 -620.2)" fill="#e6c873"/><path d="M253.54,773.67v-2.59H251V760.71h-2.59v-2.83H251V752.7h2.83v5.18h2.59v2.83h-2.59v10.12h2.59v2.84Z" transform="translate(-169.35 -620.2)" fill="#e6c873"/><path d="M263.48,773.67v-2.59h-2.59V760.71H258.3v-2.83h2.59V752.7h2.83v5.18h2.59v2.83h-2.59v10.12h2.59v2.84Z" transform="translate(-169.35 -620.2)" fill="#e6c873"/><path d="M271.42,773.67v-2.59h-2.59V760.47h2.59v-2.59h5.39v2.59h2.59v5.43h-7.77v4.93h4.94v-2.59h2.83v2.84h-2.59v2.59Zm5.15-13h-4.94v2.35h4.94Z" transform="translate(-169.35 -620.2)" fill="#e6c873"/><path d="M282.2,773.67V757.88H285v2.59h2.35v-2.59h2.83v2.83h-2.59v2.59H285v10.37Z" transform="translate(-169.35 -620.2)" fill="#e6c873"/><path d="M308.63,773.67v-5.18h-2.35v5.18h-2.83v-5.18h-2.59V763.3h-2.59v-5.42h2.83v5.18h2.59v5.18H306v-5.18h2.83v5.18h2.35v-5.18h2.59v-5.18h2.83v5.42h-2.59v5.19h-2.59v5.18Z" transform="translate(-169.35 -620.2)" fill="#e6c873"/><path d="M326.76,773.67v-13h-4.94v13H319v-21h2.8v5.18H327v2.59h2.59v13.2Z" transform="translate(-169.35 -620.2)" fill="#e6c873"/><path d="M342.44,773.67v-2.59h-2.38v2.59h-5.39v-2.59h-2.59v-5.43h2.59v-2.59h5.18v-2.35h-5.18v-2.83h5.39v2.59h2.59v10.36h2.59v2.84Zm-2.59-7.77h-4.94v4.93h4.94Z" transform="translate(-169.35 -620.2)" fill="#e6c873"/><path d="M352.38,773.67v-2.59h-2.59V760.71H347.2v-2.83h2.59V752.7h2.83v5.18h2.59v2.83h-2.59v10.12h2.59v2.84Z" transform="translate(-169.35 -620.2)" fill="#e6c873"/><path d="M357.73,773.67v-2.84h2.8v2.84Z" transform="translate(-169.35 -620.2)" fill="#e6c873"/></g></svg>