<svg id="red_dialogue" xmlns="http://www.w3.org/2000/svg" viewBox="0 0 391.62 214.24"><rect x="5" y="5" width="381.62" height="204.24" rx="28.96" fill="#13241a" stroke="#366056" stroke-miterlimit="10" stroke-width="10"/><g id="red_win"><path d="M217.56,689.67v-13H215v-5.17h-2.59V668.7h2.8v2.59h2.59v5.18h2.35v-5.18h2.59V668.7h2.83v2.84H223v5.17h-2.59v13Z" transform="translate(-169.35 -620.2)" fill="#e6c873"/><path d="M230.79,689.67v-2.59H228.2V676.47h2.59v-2.59h5.42v2.59h2.59v10.61h-2.59v2.59Zm5.18-13H231v10.12H236Z" transform="translate(-169.35 -620.2)" fill="#e6c873"/><path d="M243.84,689.67v-2.59h-2.59v-13.2h2.84v13H249v-13h2.84v15.79Z" transform="translate(-169.35 -620.2)" fill="#e6c873"/><path d="M276.6,689.67v-13h-4.93v13h-2.84v-13H263.9v13h-2.8V673.88h8v2.59h2.34v-2.59h5.43v2.59h2.59v13.2Z" transform="translate(-169.35 -620.2)" fill="#e6c873"/><path d="M282.38,671.54V668.7h2.83v2.84Zm0,18.13V673.88h2.83v15.79Z" transform="translate(-169.35 -620.2)" fill="#e6c873"/><path d="M290.53,697.43v-2.59h-2.59V692h2.84v2.59h4.93v-4.93h-5.18v-2.59h-2.59V676.47h2.59v-2.59h8v21H296v2.59Zm5.18-20.72h-4.93v10.12h4.93Z" transform="translate(-169.35 -620.2)" fill="#e6c873"/><path d="M309.08,689.67v-13h-4.93v13h-2.8v-21h2.8v5.18h5.18v2.59h2.59v13.2Z" transform="translate(-169.35 -620.2)" fill="#e6c873"/><path d="M319.23,689.67v-2.59h-2.59V676.71h-2.59v-2.83h2.59V668.7h2.84v5.18h2.59v2.83h-2.59v10.12h2.59v2.84Z" transform="translate(-169.35 -620.2)" fill="#e6c873"/><path d="M338.76,689.67v-13h-4.93v13H331v-21h2.8v5.18H339v2.59h2.59v13.2Z" transform="translate(-169.35 -620.2)" fill="#e6c873"/><path d="M354.44,689.67v-2.59h-2.38v2.59h-5.39v-2.59h-2.59v-5.43h2.59v-2.59h5.18v-2.35h-5.18v-2.83h5.39v2.59h2.59v10.36h2.59v2.84Zm-2.59-7.77h-4.93v4.93h4.93Z" transform="translate(-169.35 -620.2)" fill="#e6c873"/><path d="M364.38,689.67v-2.59h-2.59V676.71H359.2v-2.83h2.59V668.7h2.83v5.18h2.59v2.83h-2.59v10.12h2.59v2.84Z" transform="translate(-169.35 -620.2)" fill="#e6c873"/><path d="M372.33,689.67v-2.59h-2.6V676.47h2.6v-2.59h5.38v2.59h2.6v5.43h-7.77v4.93h4.93v-2.59h2.84v2.84h-2.6v2.59Zm5.14-13h-4.93v2.35h4.93Z" transform="translate(-169.35 -620.2)" fill="#e6c873"/><path d="M405.05,689.67v-13h-4.94v13h-2.83v-13h-4.94v13h-2.8V673.88h8v2.59h2.35v-2.59h5.42v2.59h2.59v13.2Z" transform="translate(-169.35 -620.2)" fill="#e6c873"/><path d="M413.2,689.67v-2.59h-2.59V676.47h2.59v-2.59h5.39v2.59h2.59v5.43h-7.77v4.93h4.94v-2.59h2.83v2.84h-2.59v2.59Zm5.15-13h-4.94v2.35h4.94Z" transform="translate(-169.35 -620.2)" fill="#e6c873"/><path d="M433,689.67v-13h-2.59v-2.83H433v-2.59h2.56V668.7h2.83v2.84h-2.59v2.34h2.59v2.83h-2.59v13Z" transform="translate(-169.35 -620.2)" fill="#e6c873"/><path d="M443.16,689.67v-2.59h-2.59V676.47h2.59v-2.59h5.43v2.59h2.59v10.61h-2.59v2.59Zm5.18-13h-4.93v10.12h4.93Z" transform="translate(-169.35 -620.2)" fill="#e6c873"/><path d="M453.8,689.67V673.88h2.8v2.59H459v-2.59h2.83v2.83h-2.59v2.59H456.6v10.37Z" transform="translate(-169.35 -620.2)" fill="#e6c873"/><path d="M470.46,689.67v-21h2.8v21Z" transform="translate(-169.35 -620.2)" fill="#e6c873"/><path d="M476.27,671.54V668.7h2.84v2.84Zm0,18.13V673.88h2.84v15.79Z" transform="translate(-169.35 -620.2)" fill="#e6c873"/><path d="M484.6,689.67v-13H482v-2.83h2.59v-2.59h2.56V668.7H490v2.84H487.4v2.34H490v2.83H487.4v13Z" transform="translate(-169.35 -620.2)" fill="#e6c873"/><path d="M494.93,689.67v-2.59h-2.59V676.47h2.59v-2.59h5.39v2.59h2.59v5.43h-7.77v4.93h4.93v-2.59h2.84v2.84h-2.59v2.59Zm5.14-13h-4.93v2.35h4.93Z" transform="translate(-169.35 -620.2)" fill="#e6c873"/><path d="M220.39,729.08v2.59h-8v-21h2.8v5.18h5.18v2.59H223v10.61Zm-.24-10.37h-4.94v10.12h4.94Z" transform="translate(-169.35 -620.2)" fill="#e6c873"/><path d="M228.06,731.67v-2.59h-2.59v-13.2h2.83v13h4.94v-13h2.83v15.79Z" transform="translate(-169.35 -620.2)" fill="#e6c873"/><path d="M243.46,731.67v-2.59h-2.59V718.71h-2.59v-2.83h2.59V710.7h2.83v5.18h2.59v2.83H243.7v10.12h2.59v2.84Z" transform="translate(-169.35 -620.2)" fill="#e6c873"/><path d="M255.25,731.67v-21h2.8v21Z" transform="translate(-169.35 -620.2)" fill="#e6c873"/><path d="M277.06,731.67v-5.18h-2.35v5.18h-2.83v-5.18h-2.59V721.3H266.7v-5.42h2.83v5.18h2.59v5.18h2.35v-5.18h2.83v5.18h2.35v-5.18h2.59v-5.18h2.83v5.42h-2.59v5.19h-2.59v5.18Z" transform="translate(-169.35 -620.2)" fill="#e6c873"/><path d="M289.87,731.67v-2.59h-2.59V718.47h2.59v-2.59h5.42v2.59h2.59v10.61h-2.59v2.59Zm5.18-13h-4.94v10.12h4.94Z" transform="translate(-169.35 -620.2)" fill="#e6c873"/><path d="M302.92,731.67v-2.59h-2.59v-13.2h2.84v13h4.93v-13h2.84v15.79Z" transform="translate(-169.35 -620.2)" fill="#e6c873"/><path d="M313.73,731.67v-21h2.81v21Z" transform="translate(-169.35 -620.2)" fill="#e6c873"/><path d="M321.75,731.67v-2.59h-2.59V718.47h2.59v-2.59h5.18V710.7h2.83v21Zm5.18-13H322v10.12h4.94Z" transform="translate(-169.35 -620.2)" fill="#e6c873"/><path d="M347,729.08v2.59h-8v-21h2.8v5.18H347v2.59h2.59v10.61Zm-.24-10.37H341.8v10.12h4.94Z" transform="translate(-169.35 -620.2)" fill="#e6c873"/><path d="M352.23,731.67V715.88H355v2.59h2.35v-2.59h2.83v2.83h-2.59v2.59H355v10.37Z" transform="translate(-169.35 -620.2)" fill="#e6c873"/><path d="M365,731.67v-2.59h-2.59V718.47H365v-2.59h5.39v2.59H373v5.43h-7.77v4.93h4.94v-2.59H373v2.84h-2.59v2.59Zm5.15-13h-4.94v2.35h4.94Z" transform="translate(-169.35 -620.2)" fill="#e6c873"/><path d="M385.94,731.67v-2.59h-2.38v2.59h-5.39v-2.59h-2.59v-5.43h2.59v-2.59h5.18v-2.35h-5.18v-2.83h5.39v2.59h2.59v10.36h2.59v2.84Zm-2.59-7.77h-4.94v4.93h4.94Z" transform="translate(-169.35 -620.2)" fill="#e6c873"/><path d="M399,731.67v-2.59h-2.59v-2.59h-2.35V732h-2.8V710.7h2.8v10.36h2.35v-2.59H399v-2.59h2.83v2.83h-2.59v2.59h-2.59v4.94h2.59v2.59h2.59v2.84Z" transform="translate(-169.35 -620.2)" fill="#e6c873"/><path d="M413.27,739.43v-2.59h-2.59V734h2.84v2.59h4.93v-4.93h-5.18v-2.59h-2.59v-13.2h2.84v13h4.93v-13h2.84v21H418.7v2.59Z" transform="translate(-169.35 -620.2)" fill="#e6c873"/><path d="M426.5,731.67v-2.59h-2.59V718.47h2.59v-2.59h5.43v2.59h2.59v10.61h-2.59v2.59Zm5.18-13h-4.93v10.12h4.93Z" transform="translate(-169.35 -620.2)" fill="#e6c873"/><path d="M439.56,731.67v-2.59H437v-13.2h2.83v13h4.94v-13h2.83v15.79Z" transform="translate(-169.35 -620.2)" fill="#e6c873"/><path d="M450.37,731.67V715.88h2.8v2.59h2.35v-2.59h2.83v2.83h-2.59v2.59h-2.59v10.37Z" transform="translate(-169.35 -620.2)" fill="#e6c873"/><path d="M467,731.67v-21h2.8v21Z" transform="translate(-169.35 -620.2)" fill="#e6c873"/><path d="M475.22,731.67v-2.59h-2.59V718.47h2.59v-2.59h5.39v2.59h2.59v5.43h-7.77v4.93h4.93v-2.59h2.84v2.84h-2.59v2.59Zm5.14-13h-4.93v2.35h4.93Z" transform="translate(-169.35 -620.2)" fill="#e6c873"/><path d="M488.41,739.43v-2.59h-2.59V734h2.84v2.59h4.93v-4.93h-5.18v-2.59h-2.59V718.47h2.59v-2.59h8v21h-2.59v2.59Zm5.18-20.72h-4.93v10.12h4.93Z" transform="translate(-169.35 -620.2)" fill="#e6c873"/><path d="M499.12,731.67v-2.84h7.77V723.9h-5.18v-2.6h-2.59v-2.83h2.59v-2.59h5.43v2.83H502v2.35h5.18v2.59h2.59v5.43h-2.59v2.59Z" transform="translate(-169.35 -620.2)" fill="#e6c873"/><path d="M211.43,781.43V778.6H214V757.88h2.84v21h-2.59v2.59ZM214,755.54V752.7h2.84v2.84Z" transform="translate(-169.35 -620.2)" fill="#e6c873"/><path d="M222,773.67v-2.59h-2.59v-13.2h2.83v13h4.94v-13h2.83v15.79Z" transform="translate(-169.35 -620.2)" fill="#e6c873"/><path d="M232.75,773.67v-2.84h7.77V765.9h-5.18v-2.6h-2.59v-2.83h2.59v-2.59h5.42v2.83h-5.18v2.35h5.18v2.59h2.59v5.43h-2.59v2.59Z" transform="translate(-169.35 -620.2)" fill="#e6c873"/><path d="M250.46,773.67v-2.59h-2.59V760.71h-2.59v-2.83h2.59V752.7h2.83v5.18h2.59v2.83H250.7v10.12h2.59v2.84Z" transform="translate(-169.35 -620.2)" fill="#e6c873"/><path d="M266.84,773.67v-2.59h-2.59V760.71h-2.59v-2.83h2.59V752.7h2.83v5.18h2.59v2.83h-2.59v10.12h2.59v2.84Z" transform="translate(-169.35 -620.2)" fill="#e6c873"/><path d="M274.61,773.67v-2.59H272V760.47h2.59v-2.59H280v2.59h2.59v10.61H280v2.59Zm5.18-13h-4.94v10.12h4.94Z" transform="translate(-169.35 -620.2)" fill="#e6c873"/><path d="M299.67,771.08v2.59h-8v-21h2.8v5.18h5.18v2.59h2.59v10.61Zm-.25-10.37h-4.93v10.12h4.93Z" transform="translate(-169.35 -620.2)" fill="#e6c873"/><path d="M304.92,773.67V757.88h2.8v2.59h2.34v-2.59h2.84v2.83h-2.59v2.59h-2.59v10.37Z" transform="translate(-169.35 -620.2)" fill="#e6c873"/><path d="M315.35,755.54V752.7h2.83v2.84Zm0,18.13V757.88h2.83v15.79Z" transform="translate(-169.35 -620.2)" fill="#e6c873"/><path d="M328.82,773.67v-13h-4.93v13h-2.8V757.88h8v2.59h2.59v13.2Z" transform="translate(-169.35 -620.2)" fill="#e6c873"/><path d="M336.8,781.43v-2.59h-2.59V776h2.84v2.59H342v-4.93H336.8v-2.59h-2.59V760.47h2.59v-2.59h8v21h-2.59v2.59ZM342,760.71h-4.93v10.12H342Z" transform="translate(-169.35 -620.2)" fill="#e6c873"/><path d="M356.47,781.43v-2.59h-2.59V776h2.83v2.59h4.94v-4.93h-5.18v-2.59h-2.59v-13.2h2.83v13h4.94v-13h2.83v21h-2.59v2.59Z" transform="translate(-169.35 -620.2)" fill="#e6c873"/><path d="M369.7,773.67v-2.59h-2.59V760.47h2.59v-2.59h5.42v2.59h2.59v10.61h-2.59v2.59Zm5.18-13h-4.94v10.12h4.94Z" transform="translate(-169.35 -620.2)" fill="#e6c873"/><path d="M382.75,773.67v-2.59h-2.59v-13.2H383v13h4.93v-13h2.84v15.79Z" transform="translate(-169.35 -620.2)" fill="#e6c873"/><path d="M407.74,773.67v-13h-4.93v13H400v-21h2.8v5.18H408v2.59h2.59v13.2Z" transform="translate(-169.35 -620.2)" fill="#e6c873"/><path d="M415.72,773.67v-2.59h-2.59V760.47h2.59v-2.59h5.43v2.59h2.59v10.61h-2.59v2.59Zm5.18-13H416v10.12h4.93Z" transform="translate(-169.35 -620.2)" fill="#e6c873"/><path d="M441.87,773.67v-13h-4.94v13H434.1v-13h-4.94v13h-2.8V757.88h8v2.59h2.35v-2.59h5.42v2.59h2.59v13.2Z" transform="translate(-169.35 -620.2)" fill="#e6c873"/><path d="M450,773.67v-2.59h-2.59V760.47H450v-2.59h5.39v2.59H458v5.43h-7.77v4.93h4.94v-2.59H458v2.84h-2.59v2.59Zm5.15-13h-4.94v2.35h4.94Z" transform="translate(-169.35 -620.2)" fill="#e6c873"/></g></svg>