<svg id="red_dialogue" xmlns="http://www.w3.org/2000/svg" viewBox="0 0 391.62 214.24"><rect x="5" y="5" width="381.62" height="204.24" rx="28.96" fill="#13241a" stroke="#366056" stroke-miterlimit="10" stroke-width="10"/><g id="red_lose"><path d="M212.41,672.43v-21H223v2.83h-7.77v4.94H223v2.83h-7.77v7.53H223v2.83Z" transform="translate(-169.35 -620.2)" fill="#e6c873"/><path d="M230.19,672.43v-5.18H227.6v-5.18H225v-5.42h2.84v5.18h2.59V667h2.34v-5.18h2.59v-5.18h2.84v5.42h-2.59v5.18H233v5.18Z" transform="translate(-169.35 -620.2)" fill="#e6c873"/><path d="M243.25,672.43v-2.59h-2.59v-10.6h2.59v-2.59h5.39v2.59h2.59v5.42h-7.77v4.94h4.93V667h2.84v2.83h-2.59v2.59Zm5.14-12.95h-4.93v2.35h4.93Z" transform="translate(-169.35 -620.2)" fill="#e6c873"/><path d="M261.76,672.43V659.48h-4.93v12.95H254V656.65h8v2.59h2.59v13.19Z" transform="translate(-169.35 -620.2)" fill="#e6c873"/><path d="M278.35,672.43v-2.59h-2.59V659.48h-2.59v-2.83h2.59v-5.18h2.84v5.18h2.59v2.83H278.6V669.6h2.59v2.83Z" transform="translate(-169.35 -620.2)" fill="#e6c873"/><path d="M291.44,672.43V659.48h-4.93v12.95h-2.8v-21h2.8v5.18h5.18v2.59h2.59v13.19Z" transform="translate(-169.35 -620.2)" fill="#e6c873"/><path d="M299.42,672.43v-2.59h-2.59v-10.6h2.59v-2.59h5.43v2.59h2.59v10.6h-2.59v2.59Zm5.18-12.95h-4.93V669.6h4.93Z" transform="translate(-169.35 -620.2)" fill="#e6c873"/><path d="M318.92,680.2v-2.59h-2.59v-2.83h2.83v2.59h4.94v-4.94h-5.18v-2.59h-2.59V656.65h2.83v13h4.94v-13h2.83v21h-2.59v2.59Z" transform="translate(-169.35 -620.2)" fill="#e6c873"/><path d="M332.15,672.43v-2.59h-2.59v-10.6h2.59v-2.59h5.42v2.59h2.59v10.6h-2.59v2.59Zm5.18-12.95h-4.94V669.6h4.94Z" transform="translate(-169.35 -620.2)" fill="#e6c873"/><path d="M345.2,672.43v-2.59h-2.59V656.65h2.84v13h4.93v-13h2.84v15.78Z" transform="translate(-169.35 -620.2)" fill="#e6c873"/><path d="M370.43,669.84v2.59h-8v-21h2.8v5.18h5.18v2.59H373v10.6Zm-.24-10.36h-4.94V669.6h4.94Z" transform="translate(-169.35 -620.2)" fill="#e6c873"/><path d="M378.27,672.43v-2.59h-2.59v-10.6h2.59v-2.59h5.39v2.59h2.59v5.42h-7.77v4.94h4.94V667h2.83v2.83h-2.59v2.59Zm5.15-12.95h-4.94v2.35h4.94Z" transform="translate(-169.35 -620.2)" fill="#e6c873"/><path d="M399.17,672.43v-2.59h-2.38v2.59H391.4v-2.59h-2.59v-5.42h2.59v-2.59h5.18v-2.35H391.4v-2.83h5.39v2.59h2.59V669.6H402v2.83Zm-2.59-7.77h-4.94v4.94h4.94Z" transform="translate(-169.35 -620.2)" fill="#e6c873"/><path d="M409.11,672.43v-2.59h-2.59V659.48h-2.59v-2.83h2.59v-5.18h2.83v5.18h2.59v2.83h-2.59V669.6h2.59v2.83Z" transform="translate(-169.35 -620.2)" fill="#e6c873"/><path d="M436.41,672.43V659.48h-4.94v12.95h-2.83V659.48H423.7v12.95h-2.8V656.65h8v2.59h2.35v-2.59h5.42v2.59h2.59v13.19Z" transform="translate(-169.35 -620.2)" fill="#e6c873"/><path d="M444.56,672.43v-2.59H442v-10.6h2.59v-2.59H450v2.59h2.59v5.42h-7.77v4.94h4.94V667h2.83v2.83H450v2.59Zm5.15-12.95h-4.94v2.35h4.94Z" transform="translate(-169.35 -620.2)" fill="#e6c873"/><path d="M466.37,672.43v-2.59h-2.59V659.48h-2.59v-2.83h2.59v-5.18h2.83v5.18h2.59v2.83h-2.59V669.6h2.59v2.83Z" transform="translate(-169.35 -620.2)" fill="#e6c873"/><path d="M479.46,672.43V659.48h-4.94v12.95h-2.8v-21h2.8v5.18h5.18v2.59h2.59v13.19Z" transform="translate(-169.35 -620.2)" fill="#e6c873"/><path d="M485.23,654.3v-2.83h2.84v2.83Zm0,18.13V656.65h2.84v15.78Z" transform="translate(-169.35 -620.2)" fill="#e6c873"/><path d="M490.87,672.43V669.6h7.77v-4.94h-5.18v-2.59h-2.59v-2.83h2.59v-2.59h5.42v2.83H493.7v2.35h5.18v2.59h2.59v5.42h-2.59v2.59Z" transform="translate(-169.35 -620.2)" fill="#e6c873"/><path d="M217,714.43v-2.59h-2.59V701.48h-2.59v-2.83h2.59v-5.18h2.83v5.18h2.59v2.83h-2.59V711.6h2.59v2.83Z" transform="translate(-169.35 -620.2)" fill="#e6c873"/><path d="M222.56,696.3v-2.83h2.84v2.83Zm0,18.13V698.65h2.84v15.78Z" transform="translate(-169.35 -620.2)" fill="#e6c873"/><path d="M243.81,714.43V701.48h-4.94v12.95H236V701.48H231.1v12.95h-2.8V698.65h8v2.59h2.35v-2.59h5.42v2.59h2.59v13.19Z" transform="translate(-169.35 -620.2)" fill="#e6c873"/><path d="M252,714.43v-2.59h-2.59v-10.6H252v-2.59h5.39v2.59h2.59v5.42h-7.77v4.94h4.94V709h2.83v2.83h-2.59v2.59Zm5.15-12.95h-4.94v2.35h4.94Z" transform="translate(-169.35 -620.2)" fill="#e6c873"/><path d="M262.74,719.61v-2.83h2.59V711.6h2.8V717h-2.59v2.59Z" transform="translate(-169.35 -620.2)" fill="#e6c873"/><path d="M277.37,714.43v-21h2.8v21Z" transform="translate(-169.35 -620.2)" fill="#e6c873"/><path d="M282.66,698.89v-2.83h2.59v-5.18h2.83v5.42h-2.59v2.59Z" transform="translate(-169.35 -620.2)" fill="#e6c873"/><path d="M290.53,714.43v-21h2.8v21Z" transform="translate(-169.35 -620.2)" fill="#e6c873"/><path d="M296.13,714.43v-21h2.8v21Z" transform="translate(-169.35 -620.2)" fill="#e6c873"/><path d="M310.76,714.43v-2.59h-2.59v-10.6h2.59v-2.59h5.39v2.59h2.59v2.83H315.9v-2.59H311V711.6h4.93V709h2.84v2.83h-2.59v2.59Z" transform="translate(-169.35 -620.2)" fill="#e6c873"/><path d="M329,714.43V701.48H324.1v12.95h-2.81v-21h2.81v5.18h5.17v2.59h2.6v13.19Z" transform="translate(-169.35 -620.2)" fill="#e6c873"/><path d="M344.71,714.43v-2.59h-2.38v2.59h-5.39v-2.59h-2.59v-5.42h2.59v-2.59h5.18v-2.35h-5.18v-2.83h5.39v2.59h2.59V711.6h2.59v2.83Zm-2.59-7.77h-4.93v4.94h4.93Z" transform="translate(-169.35 -620.2)" fill="#e6c873"/><path d="M350,714.43V711.6h7.77v-4.94h-5.18v-2.59H350v-2.83h2.59v-2.59H358v2.83h-5.18v2.35H358v2.59h2.59v5.42H358v2.59Z" transform="translate(-169.35 -620.2)" fill="#e6c873"/><path d="M365.67,714.43v-2.59h-2.59v-10.6h2.59v-2.59h5.39v2.59h2.59v5.42h-7.77v4.94h4.94V709h2.83v2.83h-2.59v2.59Zm5.15-12.95h-4.94v2.35h4.94Z" transform="translate(-169.35 -620.2)" fill="#e6c873"/><path d="M385.31,722.2v-2.59h-2.59v-2.83h2.83v2.59h4.94v-4.94h-5.18v-2.59h-2.59V698.65h2.83v13h4.94v-13h2.83v21h-2.59v2.59Z" transform="translate(-169.35 -620.2)" fill="#e6c873"/><path d="M398.54,714.43v-2.59H396v-10.6h2.59v-2.59H404v2.59h2.59v10.6H404v2.59Zm5.18-12.95h-4.94V711.6h4.94Z" transform="translate(-169.35 -620.2)" fill="#e6c873"/><path d="M411.59,714.43v-2.59H409V698.65h2.84v13h4.93v-13h2.84v15.78Z" transform="translate(-169.35 -620.2)" fill="#e6c873"/><path d="M433.43,714.43v-2.59h-2.59V701.48h-2.59v-2.83h2.59v-5.18h2.84v5.18h2.59v2.83h-2.59V711.6h2.59v2.83Z" transform="translate(-169.35 -620.2)" fill="#e6c873"/><path d="M439,696.3v-2.83h2.83v2.83Zm0,18.13V698.65h2.83v15.78Z" transform="translate(-169.35 -620.2)" fill="#e6c873"/><path d="M444.74,714.43v-21h2.8v21Z" transform="translate(-169.35 -620.2)" fill="#e6c873"/><path d="M450.34,714.43v-21h2.8v21Z" transform="translate(-169.35 -620.2)" fill="#e6c873"/><path d="M467,714.43v-2.59h-2.59V701.48h-2.59v-2.83h2.59v-5.18h2.84v5.18h2.58v2.83h-2.58V711.6h2.58v2.83Z" transform="translate(-169.35 -620.2)" fill="#e6c873"/><path d="M480.05,714.43V701.48h-4.93v12.95h-2.81v-21h2.81v5.18h5.17v2.59h2.6v13.19Z" transform="translate(-169.35 -620.2)" fill="#e6c873"/><path d="M488.21,714.43v-2.59h-2.6v-10.6h2.6v-2.59h5.38v2.59h2.6v5.42h-7.77v4.94h4.93V709h2.84v2.83h-2.6v2.59Zm5.14-12.95h-4.93v2.35h4.93Z" transform="translate(-169.35 -620.2)" fill="#e6c873"/><path d="M215,756.43v-2.59h-2.59v-10.6H215v-2.59h5.39v2.59H223v5.42h-7.77v4.94h4.94V751H223v2.83h-2.59v2.59Zm5.15-12.95h-4.94v2.35h4.94Z" transform="translate(-169.35 -620.2)" fill="#e6c873"/><path d="M233.52,756.43V743.48h-4.94v12.95h-2.8V740.65h8v2.59h2.59v13.19Z" transform="translate(-169.35 -620.2)" fill="#e6c873"/><path d="M241.5,756.43v-2.59h-2.59v-10.6h2.59v-2.59h5.18v-5.18h2.83v21Zm5.18-12.95h-4.94V753.6h4.94Z" transform="translate(-169.35 -620.2)" fill="#e6c873"/><path d="M261.17,756.43v-2.59h-2.59v-10.6h2.59v-2.59h5.42v2.59h2.59v10.6h-2.59v2.59Zm5.18-12.95h-4.94V753.6h4.94Z" transform="translate(-169.35 -620.2)" fill="#e6c873"/><path d="M274.4,756.43V743.48h-2.59v-2.83h2.59v-2.59H277v-2.59h2.84v2.83H277.2v2.35h2.59v2.83H277.2v12.95Z" transform="translate(-169.35 -620.2)" fill="#e6c873"/><path d="M293.16,756.43v-2.59h-2.59V743.48H288v-2.83h2.59v-5.18h2.83v5.18H296v2.83H293.4V753.6H296v2.83Z" transform="translate(-169.35 -620.2)" fill="#e6c873"/><path d="M306.25,756.43V743.48h-4.94v12.95h-2.8v-21h2.8v5.18h5.18v2.59h2.59v13.19Z" transform="translate(-169.35 -620.2)" fill="#e6c873"/><path d="M314.4,756.43v-2.59h-2.59v-10.6h2.59v-2.59h5.39v2.59h2.59v5.42h-7.77v4.94h4.94V751h2.83v2.83h-2.59v2.59Zm5.15-12.95h-4.94v2.35h4.94Z" transform="translate(-169.35 -620.2)" fill="#e6c873"/><path d="M341.38,756.43v-5.18H339v5.18H336.2v-5.18h-2.59v-5.18H331v-5.42h2.84v5.18h2.59V751h2.34v-5.18h2.84V751H344v-5.18h2.59v-5.18h2.84v5.42h-2.59v5.18h-2.59v5.18Z" transform="translate(-169.35 -620.2)" fill="#e6c873"/><path d="M354.19,756.43v-2.59H351.6v-10.6h2.59v-2.59h5.43v2.59h2.59v10.6h-2.59v2.59Zm5.18-12.95h-4.93V753.6h4.93Z" transform="translate(-169.35 -620.2)" fill="#e6c873"/><path d="M364.83,756.43V740.65h2.8v2.59H370v-2.59h2.83v2.83h-2.59v2.59h-2.59v10.36Z" transform="translate(-169.35 -620.2)" fill="#e6c873"/><path d="M375.05,756.43v-21h2.8v21Z" transform="translate(-169.35 -620.2)" fill="#e6c873"/><path d="M383.07,756.43v-2.59h-2.59v-10.6h2.59v-2.59h5.18v-5.18h2.83v21Zm5.18-12.95h-4.94V753.6h4.94Z" transform="translate(-169.35 -620.2)" fill="#e6c873"/><path d="M410.44,756.43v-2.59h-2.38v2.59h-5.39v-2.59h-2.59v-5.42h2.59v-2.59h5.18v-2.35h-5.18v-2.83h5.39v2.59h2.59V753.6h2.59v2.83Zm-2.59-7.77h-4.94v4.94h4.94Z" transform="translate(-169.35 -620.2)" fill="#e6c873"/><path d="M423.53,756.43V743.48h-4.94v12.95h-2.8V740.65h8v2.59h2.59v13.19Z" transform="translate(-169.35 -620.2)" fill="#e6c873"/><path d="M431.51,756.43v-2.59h-2.59v-10.6h2.59v-2.59h5.18v-5.18h2.83v21Zm5.18-12.95h-4.94V753.6h4.94Z" transform="translate(-169.35 -620.2)" fill="#e6c873"/><path d="M448.76,756.43v-21h2.8v21Z" transform="translate(-169.35 -620.2)" fill="#e6c873"/><path d="M454.05,740.89v-2.83h2.59v-5.18h2.83v5.42h-2.59v2.59Z" transform="translate(-169.35 -620.2)" fill="#e6c873"/><path d="M461.92,756.43v-21h2.8v21Z" transform="translate(-169.35 -620.2)" fill="#e6c873"/><path d="M467.52,756.43v-21h2.8v21Z" transform="translate(-169.35 -620.2)" fill="#e6c873"/><path d="M487.54,753.84v2.59h-8v-21h2.8v5.18h5.18v2.59h2.59v10.6Zm-.25-10.36h-4.93V753.6h4.93Z" transform="translate(-169.35 -620.2)" fill="#e6c873"/><path d="M492.79,756.43V740.65h2.8v2.59h2.34v-2.59h2.84v2.83h-2.59v2.59h-2.59v10.36Z" transform="translate(-169.35 -620.2)" fill="#e6c873"/><path d="M503.22,738.3v-2.83h2.83v2.83Zm0,18.13V740.65h2.83v15.78Z" transform="translate(-169.35 -620.2)" fill="#e6c873"/><path d="M516.69,756.43V743.48h-4.93v12.95H509V740.65h8v2.59h2.59v13.19Z" transform="translate(-169.35 -620.2)" fill="#e6c873"/><path d="M524.67,764.2v-2.59h-2.59v-2.83h2.84v2.59h4.93v-4.94h-5.18v-2.59h-2.59v-10.6h2.59v-2.59h8v21H530.1v2.59Zm5.18-20.72h-4.93V753.6h4.93Z" transform="translate(-169.35 -620.2)" fill="#e6c873"/><path d="M214.83,806.2v-2.59h-2.59v-2.83h2.83v2.59H220v-4.94h-5.18v-2.59h-2.59V782.65h2.83v13H220v-13h2.83v21h-2.59v2.59Z" transform="translate(-169.35 -620.2)" fill="#e6c873"/><path d="M228.06,798.43v-2.59h-2.59v-10.6h2.59v-2.59h5.42v2.59h2.59v10.6h-2.59v2.59Zm5.18-12.95H228.3V795.6h4.94Z" transform="translate(-169.35 -620.2)" fill="#e6c873"/><path d="M241.11,798.43v-2.59h-2.59V782.65h2.84v13h4.93v-13h2.84v15.78Z" transform="translate(-169.35 -620.2)" fill="#e6c873"/><path d="M266.35,795.84v2.59h-8v-21h2.8v5.18h5.18v2.59h2.59v10.6Zm-.25-10.36h-4.93V795.6h4.93Z" transform="translate(-169.35 -620.2)" fill="#e6c873"/><path d="M281.71,798.43v-2.59h-2.38v2.59h-5.39v-2.59h-2.59v-5.42h2.59v-2.59h5.18v-2.35h-5.18v-2.83h5.39v2.59h2.59V795.6h2.59v2.83Zm-2.59-7.77h-4.93v4.94h4.93Z" transform="translate(-169.35 -620.2)" fill="#e6c873"/><path d="M289.66,798.43v-2.59h-2.59v-10.6h2.59v-2.59h5.39v2.59h2.59v2.83H294.8v-2.59h-4.93V795.6h4.93V793h2.84v2.83h-2.59v2.59Z" transform="translate(-169.35 -620.2)" fill="#e6c873"/><path d="M307.93,798.43v-2.59h-2.59v-2.59H303v5.46h-2.8V777.47H303v10.36h2.35v-2.59h2.59v-2.59h2.83v2.83h-2.59v2.59h-2.59V793h2.59v2.59h2.59v2.83Z" transform="translate(-169.35 -620.2)" fill="#e6c873"/><path d="M327.49,798.43V785.48h-4.93v12.95h-2.8V782.65h8v2.59h2.59v13.19Z" transform="translate(-169.35 -620.2)" fill="#e6c873"/><path d="M335.47,798.43v-2.59h-2.59v-10.6h2.59v-2.59h5.43v2.59h2.59v10.6H340.9v2.59Zm5.18-12.95h-4.93V795.6h4.93Z" transform="translate(-169.35 -620.2)" fill="#e6c873"/><path d="M368.05,798.43V785.48h-4.93v12.95h-2.84V785.48h-4.93v12.95h-2.8V782.65h8v2.59h2.34v-2.59h5.43v2.59h2.59v13.19Z" transform="translate(-169.35 -620.2)" fill="#e6c873"/><path d="M383.73,798.43v-2.59h-2.38v2.59H376v-2.59h-2.59v-5.42H376v-2.59h5.18v-2.35H376v-2.83h5.39v2.59h2.59V795.6h2.59v2.83Zm-2.59-7.77h-4.93v4.94h4.93Z" transform="translate(-169.35 -620.2)" fill="#e6c873"/><path d="M393.67,798.43v-2.59h-2.59V785.48h-2.59v-2.83h2.59v-5.18h2.84v5.18h2.59v2.83h-2.59V795.6h2.59v2.83Z" transform="translate(-169.35 -620.2)" fill="#e6c873"/><path d="M403.61,798.43v-2.59H401V785.48h-2.59v-2.83H401v-5.18h2.84v5.18h2.59v2.83h-2.59V795.6h2.59v2.83Z" transform="translate(-169.35 -620.2)" fill="#e6c873"/><path d="M411.56,798.43v-2.59H409v-10.6h2.59v-2.59H417v2.59h2.59v5.42h-7.77v4.94h4.93V793h2.84v2.83H417v2.59Zm5.14-12.95h-4.93v2.35h4.93Z" transform="translate(-169.35 -620.2)" fill="#e6c873"/><path d="M422.34,798.43V782.65h2.8v2.59h2.34v-2.59h2.84v2.83h-2.59v2.59h-2.59v10.36Z" transform="translate(-169.35 -620.2)" fill="#e6c873"/><path d="M448.76,798.43v-5.18h-2.34v5.18h-2.84v-5.18H441v-5.18H438.4v-5.42h2.84v5.18h2.59V793h2.34v-5.18H449V793h2.34v-5.18h2.59v-5.18h2.84v5.42h-2.59v5.18H451.6v5.18Z" transform="translate(-169.35 -620.2)" fill="#e6c873"/><path d="M466.89,798.43V785.48H462v12.95h-2.8v-21H462v5.18h5.18v2.59h2.59v13.19Z" transform="translate(-169.35 -620.2)" fill="#e6c873"/><path d="M482.57,798.43v-2.59h-2.38v2.59H474.8v-2.59h-2.59v-5.42h2.59v-2.59H480v-2.35H474.8v-2.83h5.39v2.59h2.59V795.6h2.59v2.83ZM480,790.66h-4.93v4.94H480Z" transform="translate(-169.35 -620.2)" fill="#e6c873"/><path d="M492.51,798.43v-2.59h-2.59V785.48h-2.59v-2.83h2.59v-5.18h2.84v5.18h2.59v2.83h-2.59V795.6h2.59v2.83Z" transform="translate(-169.35 -620.2)" fill="#e6c873"/><path d="M497.87,798.43V795.6h2.8v2.83Z" transform="translate(-169.35 -620.2)" fill="#e6c873"/></g></svg>