<?xml-stylesheet type="text/css" href="svg.css" ?>
<svg id="weapons" xmlns="http://www.w3.org/2000/svg" viewBox="0 0 161.26 161.26"><g id="rock"><rect width="161.26" height="161.26" rx="21.36" fill="#e6c873"/><polygon points="82.83 25.37 29.87 39.71 16.63 72.82 22.15 119.16 53.04 135.89 90.56 135.89 122.56 127.99 144.63 103.71 132.49 61.78 112.63 31.99 82.83 25.37" fill="#828282" stroke="#000" stroke-miterlimit="10" stroke-width="3"/><path d="M167.75,755.48c-5.81,0-11.69,4.07-13.16,9.55a17.43,17.43,0,0,1,7.36-1.68,13.71,13.71,0,0,1,13.54,13.87c0,.51.17,1.17.12,1.66a13.18,13.18,0,0,0,4.78-10.45A12.8,12.8,0,0,0,167.75,755.48Z" transform="translate(-54.32 -667.04)" fill="#5b5b5b"/><path d="M107.39,714.58a8.84,8.84,0,0,0-8.48,6.62,9.24,9.24,0,0,1,4.44-1.14,9.55,9.55,0,0,1,9.42,9.66c0,.35,0,.7,0,1a9.1,9.1,0,0,0,3.47-7.17A8.91,8.91,0,0,0,107.39,714.58Z" transform="translate(-54.32 -667.04)" fill="#5b5b5b"/><path d="M92.31,763.27a8.84,8.84,0,0,0-8.48,6.62,9.24,9.24,0,0,1,4.44-1.14,9.55,9.55,0,0,1,9.42,9.66c0,.35,0,.7,0,1.05a9.1,9.1,0,0,0,3.47-7.17A8.91,8.91,0,0,0,92.31,763.27Z" transform="translate(-54.32 -667.04)" fill="#5b5b5b"/><path d="M137.31,740.55a6.9,6.9,0,0,0-6.62,5.17,7.13,7.13,0,0,1,3.47-.89,7.46,7.46,0,0,1,7.37,7.55,7.19,7.19,0,0,1-.05.81,7.06,7.06,0,0,0,2.71-5.6A7,7,0,0,0,137.31,740.55Z" transform="translate(-54.32 -667.04)" fill="#5b5b5b"/><path d="M167.18,715.76a9.92,9.92,0,0,1-.61-9.68,8.7,8.7,0,0,0-1.6,11.29,9.22,9.22,0,0,0,11.86,2.79A10.67,10.67,0,0,1,167.18,715.76Z" transform="translate(-54.32 -667.04)" fill="#5b5b5b"/><circle cx="112.79" cy="101.97" r="13.87" fill="none" stroke="#000" stroke-miterlimit="10" stroke-width="3"/><path d="M169.31,703a9.54,9.54,0,0,0-3.3,1.39A9.65,9.65,0,1,0,179.23,718Z" transform="translate(-54.32 -667.04)" fill="none" stroke="#000" stroke-miterlimit="10" stroke-width="3"/><circle cx="53.02" cy="56.56" r="9.66" fill="none" stroke="#000" stroke-miterlimit="10" stroke-width="3"/><circle cx="37.94" cy="105.25" r="9.66" fill="none" stroke="#000" stroke-miterlimit="10" stroke-width="3"/><circle cx="82.96" cy="80.55" r="7.55" fill="none" stroke="#000" stroke-miterlimit="10" stroke-width="3"/><path d="M131.85,802.83a6.8,6.8,0,0,0,.49-2.51,7.12,7.12,0,0,0-14.24,0,6.8,6.8,0,0,0,.49,2.51Z" transform="translate(-54.32 -667.04)" fill="none" stroke="#000" stroke-miterlimit="10" stroke-width="3"/></g></svg>