<?xml-stylesheet type="text/css" href="svg.css" ?>
<svg id="weapons" xmlns="http://www.w3.org/2000/svg" viewBox="0 0 161.26 161.26"><g id="scissors"><rect width="161.26" height="161.26" rx="21.36" fill="#e6c873"/><path d="M551.28,748.11l55.61-42.2c4.27-3.43,7.65.89,4.16,5.55l-35.94,40.89c-3.13-2-5.12-5-6.46-6.26l-12,9.6Z" transform="translate(-482.28 -667.04)" fill="#adadad" stroke="#231f20" stroke-linejoin="round" stroke-width="3"/><path d="M551.28,747.78,544,750.34a20.72,20.72,0,0,0-7-2.9c-15.12-1.91-26.26-.45-31.25,10.8-4.73,12.13,17.08,23.45,26.74,15.88l24.82-18.41ZM525.8,768.86c-6.56,1.14-10.93,0-12.37-3.73s2.48-9.27,8.74-12.38,11.07-1.65,14,1.1C540.61,758.12,537.77,766.78,525.8,768.86Z" transform="translate(-482.28 -667.04)" fill="#66b3ff" stroke="#000" stroke-linejoin="round" stroke-width="3"/><path d="M572.83,764.4l21.55-66.65c1.72-5.2-3.51-6.85-6.65-2l-25.73,48c3,2.22,6.46,3.05,8.12,3.86l-4.81,14.57Z" transform="translate(-482.28 -667.04)" fill="#c6c6c6" stroke="#231f20" stroke-linejoin="round" stroke-width="3"/><path d="M573.89,764.28l0,7.64a18.81,18.81,0,0,1,4.7,5.45c6.31,13.27,8.44,24.09.09,32.84-9.21,8.82-25.84-7.17-22.14-18.87l8.57-29.7Zm-10.71,31.28c1,6.48,3.36,10.1,7.07,10.06s7.38-5.69,8.2-12.62-1.94-10.83-5.24-12.49C568.08,777.94,561.34,783.74,563.18,795.56Z" transform="translate(-482.28 -667.04)" fill="#66b3ff" stroke="#000" stroke-linejoin="round" stroke-width="3"/><circle cx="91.8" cy="71.86" r="2.42" fill="#adadad" stroke="#231f20" stroke-miterlimit="10"/></g></svg>